<svg xmlns="http://www.w3.org/2000/svg" width="177" height="170" viewBox="0 0 177 170" fill="none">
<g clip-path="url(#clip0_566_63)">
<path fill-rule="evenodd" clip-rule="evenodd" d="M0.375 140.25C0.375 114.737 16.6371 93.0231 39.3611 84.9072C45.5373 82.7013 52.1909 81.5 59.125 81.5C66.0591 81.5 72.7127 82.7013 78.8889 84.9072C82.244 86.1054 85.4582 87.6001 88.5 89.3597C91.5418 87.6001 94.756 86.1054 98.1111 84.9072C104.287 82.7013 110.941 81.5 117.875 81.5C124.809 81.5 131.463 82.7013 137.639 84.9072C160.363 93.0231 176.625 114.737 176.625 140.25V169.625H125.219V154.938H161.938V140.25C161.938 115.915 142.21 96.1875 117.875 96.1875C112.028 96.1875 106.448 97.3262 101.343 99.3939C111.577 109.967 117.875 124.373 117.875 140.25V169.625H0.375V140.25ZM103.188 140.25V154.938H15.0625V140.25C15.0625 115.915 34.79 96.1875 59.125 96.1875C83.46 96.1875 103.188 115.915 103.188 140.25Z" fill="#AE2E42"/>
<path fill-rule="evenodd" clip-rule="evenodd" d="M59.125 74.1562C52.3789 74.1562 46.0578 72.337 40.6254 69.1624C29.7275 62.7938 22.4062 50.9706 22.4062 37.4375C22.4062 17.1583 38.8458 0.71875 59.125 0.71875C71.1364 0.71875 81.8008 6.48611 88.5 15.4027C95.1992 6.48611 105.864 0.71875 117.875 0.71875C138.154 0.71875 154.594 17.1583 154.594 37.4375C154.594 50.9706 147.272 62.7938 136.375 69.1624C130.942 72.337 124.621 74.1562 117.875 74.1562C111.129 74.1562 104.808 72.337 99.3754 69.1624C95.1353 66.6845 91.4367 63.381 88.5 59.4723C85.5633 63.381 81.8647 66.6845 77.6246 69.1624C72.1922 72.337 65.8711 74.1562 59.125 74.1562ZM81.1562 37.4375C81.1562 49.605 71.2925 59.4688 59.125 59.4688C46.9575 59.4688 37.0938 49.605 37.0938 37.4375C37.0938 25.27 46.9575 15.4062 59.125 15.4062C71.2925 15.4062 81.1562 25.27 81.1562 37.4375ZM117.875 15.4062C105.707 15.4062 95.8438 25.27 95.8438 37.4375C95.8438 49.605 105.707 59.4688 117.875 59.4688C130.043 59.4688 139.906 49.605 139.906 37.4375C139.906 25.27 130.043 15.4062 117.875 15.4062Z" fill="#AE2E42"/>
</g>
<defs>
<clipPath id="clip0_566_63">
<rect width="176.25" height="168.906" fill="white" transform="translate(0.375 0.71875)"/>
</clipPath>
</defs>
</svg>