<svg class="svg-icon" style="width: 1em;height: 1em;vertical-align: middle;fill: #285347;overflow: hidden;" viewBox="0 0 1024 1024" version="1.1" xmlns="http://www.w3.org/2000/svg"><path d="M262.28224 768.27648c0-6.47168-2.52416-12.544-7.09632-17.10592a24.0384 24.0384 0 0 0-17.09568-7.07584 24.02816 24.02816 0 0 0-17.12128 7.10656L91.41248 880.6912a24.2688 24.2688 0 0 0 0.0512 32.91648 23.94624 23.94624 0 0 0 17.70496 7.71072 24.27392 24.27392 0 0 0 16.41984-6.43072l129.62304-129.50528a24.02304 24.02304 0 0 0 7.07072-17.10592zM806.07232 364.1856c0.03072-80.13824-65.17248-145.36192-145.34144-145.39264-80.10752 0-145.30048 65.16736-145.3312 145.27488-0.01536 38.81472 15.08352 75.3152 42.5216 102.784 27.43296 27.45856 63.9232 42.58816 102.7328 42.60864l3.77856 0.01536h0.0256c78.0544-1.98144 141.58336-67.15392 141.61408-145.29024z m-193.85856-83.98848a96.96256 96.96256 0 0 1 48.36864-12.98944c34.62144 0 66.85696 18.6112 84.13184 48.56832a97.14688 97.14688 0 0 1 12.90752 48.2816 96.3584 96.3584 0 0 1-28.3648 68.61312 96.37888 96.37888 0 0 1-68.58752 28.4672c-53.49376 0-97.00864-43.46368-97.00864-96.89088a97.29024 97.29024 0 0 1 48.55296-84.04992zM109.14816 800.9216c5.632 0 11.1616-2.02752 15.7184-5.83168 0 0 77.45536-78.57664 77.68064-78.8224a24.0384 24.0384 0 0 0 6.29248-17.408 24.00768 24.00768 0 0 0-7.84384-16.75776 24.1152 24.1152 0 0 0-16.3072-6.32832 24.0896 24.0896 0 0 0-17.94048 7.9616l-75.4432 76.66176a24.28928 24.28928 0 0 0 0.26112 32.95232c4.608 4.87424 10.8544 7.57248 17.58208 7.57248z"  /><path d="M779.68384 654.40256c138.7008-139.33568 187.52-321.70496 145.10592-542.00832-1.75616-10.50624-10.42944-18.72896-21.0432-19.9936-37.53984-5.33504-74.87488-8.0384-110.96576-8.0384-60.18048 0-119.0656 7.52128-175.01184 22.36416-87.37792 23.07584-171.79136 72.30464-250.88512 146.32448l-0.86016 0.80896-1.18272-0.0768a500.20864 500.20864 0 0 0-31.61088-1.03424c-126.67392 0-203.18208 51.98336-227.38432 154.50624-17.87904 75.33056-14.70976 104.65792 16.95744 156.9024 6.144 10.14784 13.85984 15.08352 23.59808 15.08352 6.90176 0 14.83264-2.53952 23.59296-7.552a145.1008 145.1008 0 0 0 13.46048-8.86784l13.11232-9.66656c5.85728-4.2752 9.68704-6.90176 13.23008-9.05216l5.01248-3.03616-2.60096 17.2288a425.54368 425.54368 0 0 0-4.51584 47.21152c-0.82432 25.53344 2.18624 46.1312 9.20576 62.9504 10.50112 25.51296 99.21536 115.5072 164.51072 149.57056 9.49248 4.92032 15.88736 6.58432 25.33376 6.58432 10.21952 0 23.59808-2.0224 49.73056-6.53824 5.68832-1.00864 11.392-1.93024 17.11104-2.78016l5.39648-0.78848-4.00384 7.46496-2.45248 4.47488c-9.05216 16.74752-13.42464 26.42944-16.13312 35.7376-6.88128 23.76704 0.09728 40.4992 19.6352 47.11424l0.35328 0.12288 0.31744 0.20992a200.59648 200.59648 0 0 0 21.42208 12.6208c23.13216 11.8016 45.952 17.54112 69.75488 17.54112 26.5216 0 54.33856-7.51616 82.688-22.32832 95.13472-49.72032 138.19904-134.97344 127.98464-252.98432l1.13664-10.07616z m-211.77856 237.02016c-16.08192 0-31.65184-3.97824-47.67744-12.20608-1.6384-0.768-4.75648-2.59584-9.7024-5.50912l-5.81632-3.42016 1.01376-2.24768a267.91424 267.91424 0 0 1 9.3184-18.6368l2.33472-4.3008c12.3904-22.66112 13.85984-25.42592 17.06496-33.6384a43.52 43.52 0 0 0 3.77344-21.03808c-1.4592-14.58688-12.7744-25.20064-27.51488-25.80992a191.3088 191.3088 0 0 0-14.39744-0.00512c-16.10752 0.77824-32.3072 2.73408-48.11264 5.80608-21.7856 3.80928-34.07872 5.504-39.86432 5.504-2.14528 0-3.49184-0.22016-4.49536-0.7424-55.31648-28.8768-135.49056-108.928-142.26944-125.21472-4.1984-10.10688-6.0672-24.58112-5.5552-42.99264 0.62464-14.18752 2.01728-28.27264 4.1472-41.90208l2.22208-15.58528c0.91136-5.90848 1.4592-10.05056 1.82784-13.82912 1.82784-17.42336 1.62304-24.3712-7.87968-33.8688-9.09824-9.07264-19.10784-13.48096-30.61248-13.48096-11.8016 0-25.12896 4.64896-40.76032 14.22848a262.46656 262.46656 0 0 0-16.92672 11.5712l-12.672 9.40544-1.44896-2.96448c-14.4896-29.60384-12.95872-51.48672-1.00864-102.20032 18.6624-78.9504 77.21984-117.32992 179.01056-117.32992 12.8512 0 26.63424 0.61952 40.96512 1.83808l10.93632 0.94208 7.95648-7.62368c73.92256-71.33696 152.46336-118.8864 233.55392-141.35808l1.03424-0.3584 3.79392-1.00352c51.94752-13.75744 106.70592-20.73088 162.75456-20.73088 27.81696 0 56.52992 1.7152 85.34016 5.10464l2.04288 0.23552 0.33792 2.02752c34.00704 200.2432-14.78144 365.02528-144.9984 489.77408l-8.832 8.44288 1.65376 12.15488c14.1568 108.1344-18.66752 181.45792-100.33152 224.16384-21.62688 11.30496-41.32352 16.79872-60.20608 16.79872zM299.8016 810.97216a24.01792 24.01792 0 0 0-17.25952 7.23968l-56.71424 57.69216a24.00768 24.00768 0 0 0-7.54176 18.64192 24.00256 24.00256 0 0 0 7.82848 16.77312 24.10496 24.10496 0 0 0 16.32256 6.35392 24.2432 24.2432 0 0 0 17.81248-7.81824l0.88064-0.93696h0.09728l55.82336-56.8064c4.5312-4.608 6.99392-10.70592 6.93248-17.16736s-2.62656-12.51328-7.23968-17.03936a24.01792 24.01792 0 0 0-16.94208-6.93248z"  /></svg>