<svg xmlns="http://www.w3.org/2000/svg" xmlns:xlink="http://www.w3.org/1999/xlink" fill="#285347" version="1.1" x="0px" y="0px" viewBox="0 0 512 640" style="enable-background:new 0 0 512 512;" width="75px" height="75px " xml:space="preserve"><g><path d="M99.7,64.2h312.6V49.4H99.7V64.2z M418.4,76.4h-15.8v207.8c6.1,1.5,11.6,4.8,15.5,9.7l21.7-68.9   c7.5-23.8,29.9-30,42.9-17.4c6.2,6,9.5,16.2,6.5,29.4l-27.7,121.4c-1.2,5.2-3.9,9.4-8.2,12.6h0l-54.6,40.3   c-2.9,2.2-3.4,4.8-4.5,8.2c7.8,1.8,13.6,8.8,13.6,17v21c0,9.6-7.8,17.4-17.4,17.4h-89.2c-9.6,0-17.4-7.8-17.4-17.4v-21   c0-8.6,6.3-15.9,14.7-17.2l0.8-5.6h-86.6l0.8,5.6c8.4,1.3,14.7,8.6,14.7,17.2v21c0,9.6-7.8,17.4-17.4,17.4h-89.2   c-9.6,0-17.4-7.8-17.4-17.4v-21c0-8.2,5.8-15.2,13.6-17c-1-3.3-1.5-6-4.5-8.2l-54.6-40.3l0,0c-4.3-3.2-7-7.3-8.2-12.6L22.8,237   c-5.5-24,10.5-39.5,27.9-35.1c8.8,2.2,17.3,9.6,21.5,23l21.7,68.9c3.9-4.9,9.4-8.2,15.5-9.7V76.4H93.6c-3.4,0-6.1-2.7-6.1-6.1v-27   c0-3.4,2.7-6.1,6.1-6.1h324.8c3.3,0,6.1,2.7,6.1,6.1v27C424.5,73.7,421.7,76.4,418.4,76.4L418.4,76.4z M186.4,238   c-7.8-1.8-5-13.7,2.8-11.8l12.2,2.8c7.8,1.9,5,13.7-2.8,11.9L186.4,238z M322.9,226.2c7.8-1.8,10.5,10,2.8,11.8l-12.2,2.9   c-7.8,1.8-10.6-10-2.8-11.9L322.9,226.2z M210.8,431.1h-89.2c-2.9,0-5.3,2.4-5.3,5.2v21c0,2.9,2.4,5.3,5.3,5.3h89.2   c2.8,0,5.2-2.4,5.2-5.3v-21C216,433.5,213.6,431.1,210.8,431.1L210.8,431.1z M130.4,418.9h70.8l-12.1-86.2   c-0.1-0.8-0.5-1.5-1.1-2.1l0,0c-0.8-0.9-2-1.7-3.3-2.4L127,298.1c-8.6-4.5-20.5-3.2-25.1,5.6c-1.6,3.2-2.2,7.3-1,12.2l47,30.9   c6.7,4.4,0,14.5-6.6,10.1l-48.9-32.2c-1.3-0.8-2.1-1.9-2.5-3.2h0l-29.2-92.9c-7.4-23.4-31.5-18.5-26,5.7l27.7,121.4   c0.5,2.3,1.7,4.1,3.5,5.4h0l54.6,40.3C127,406.2,128,411.6,130.4,418.9L130.4,418.9z M121.6,283.7c3.8,0.5,7.5,1.7,11.1,3.6V91.1   c0-4.5,4.9-7.8,9.4-5.1l82.6,46.4c2,1.1,3.1,3.1,3.1,5.3l0,0v197.8c0,2.8-2,5.3-4.7,5.9l-19.5,6.5l3.1,22.3h98.7l3.1-22.3   l-19.6-6.5c-2.6-0.6-4.6-3.1-4.6-5.9V137.6l0,0c0-2.2,1.1-4.2,3.1-5.3L370,85.9c4.4-2.6,9.4,0.6,9.4,5.1v196.2   c3.6-1.9,7.3-3.1,11-3.6V76.4H121.6V283.7z M144.8,293.7l45.5,23.7c2.5,1.3,4.8,2.9,6.7,5l0,0c3.9,4.2,4.1,8,4.8,13.2l13.8-4.6   V141.2l-70.7-39.7V293.7z M208.3,382.3l2.7,19h90l2.6-19H208.3z M310.8,418.9h70.8c2.3-7.2,3.4-12.7,9.9-17.5l54.6-40.3l0,0   c1.9-1.3,3.1-3.1,3.6-5.4l27.6-121.4c5.6-24.2-18.5-29.2-25.9-5.7l-29.3,92.9l0,0c-0.4,1.3-1.3,2.5-2.5,3.2l-48.9,32.2   c-6.7,4.4-13.3-5.8-6.7-10.1l47-30.9c1.2-4.9,0.6-9.1-1-12.2c-4.6-8.8-16.4-10-25-5.6l-57.8,30.1c-1.3,0.7-2.5,1.5-3.3,2.4h0   c-0.6,0.6-0.9,1.3-1,2.1L310.8,418.9z M390.4,431.1h-89.2c-2.8,0-5.2,2.4-5.2,5.2v21c0,2.9,2.4,5.3,5.2,5.3h89.2   c2.8,0,5.2-2.4,5.2-5.3v-21C395.6,433.5,393.2,431.1,390.4,431.1L390.4,431.1z M310.2,335.6c0.7-5.3,0.9-9.1,4.7-13.2v0   c1.9-2.1,4.2-3.7,6.7-5l45.5-23.7V101.4l-70.7,39.7V331L310.2,335.6z"/></g></svg>