<svg xmlns="http://www.w3.org/2000/svg" width="1804" height="1231" viewBox="0 0 1804 1231" fill="none">
<path d="M2 109.279C69.0391 111.514 208.48 93.1869 229.933 2M2 293.664C142.782 276.902 199.765 377.475 377.419 347.303C528.257 321.685 434.402 162.918 434.402 2M2 749.598C162.894 390.885 769.598 571.918 685.799 2M789.71 2C768.48 146.156 783.115 455.709 977.419 592.033C1202 749.598 1041.11 990.975 880.212 990.975C762.894 990.975 598.648 1091.55 518.201 1229M2 947.393C250.045 893.754 196.413 779.77 320.436 638.967C524.116 407.728 833.285 699.311 518.201 846.82C340.548 929.989 260.101 1033.22 246.693 1229M1091.39 2C853.397 390.885 994.849 488.777 1145.02 638.967C1315.97 809.943 1419.88 947.393 1191.94 1229M856.749 1229C846.693 1182.07 844.134 1099.66 977.419 1084.84C1128.26 1068.08 1064.57 1165.3 1037.75 1229M1222.11 2C1108.15 99.2213 1001.55 339.928 1486.92 524.984C1721.55 614.444 1567.36 672.492 1802 876.992M1346.13 2C1054.51 152.861 1162.45 307.744 1486.92 310.426C1661.22 310.426 1767.14 344.621 1802 454.582M1537.2 1229C1552.84 1166.42 1568.03 998.351 1503.68 826.705C1469.74 736.189 1557.98 669.139 1802 990.975M1644.46 2C1684.68 25.4672 1644.46 193.09 1802 159.566" stroke="#285347" stroke-width="4"/>
</svg>