<svg class="svg-icon" style="width: 1em; height: 1em;vertical-align: middle;fill: #285347;overflow: hidden;" viewBox="0 0 1024 1024" version="1.1" xmlns="http://www.w3.org/2000/svg"><path d="M499.556597 756.290819c5.736655 3.38919 10.077519 5.827729 12.463869 7.131421 2.066055-1.13587 5.567809-3.069919 10.18906-5.791913-6.504134 2.793626-10.413164 4.137227-10.413164 4.137227S507.176135 759.864204 499.556597 756.290819L499.556597 756.290819zM499.556597 756.290819"  /><path d="M920.007531 545.745569 525.690814 148.323117c-3.501754-3.52222-8.234545-5.496178-13.186324-5.516644-4.361331-0.463558-9.706059 1.958608-13.207813 5.460362L101.890598 545.689287c-7.286963 7.286963-7.286963 19.059078 0 26.341948 7.28287 7.283894 19.054985 7.283894 26.337855 0l83.084277-83.083254L211.31273 878.716102l605.600795 0 0-3.650133 1.639337 0L818.552861 496.362858l75.020624 75.613118c3.650133 3.669576 8.438183 5.51562 13.227256 5.51562 4.728698 0 9.481955-1.806135 13.110599-5.40408C927.199327 564.825113 927.235143 553.032532 920.007531 545.745569L920.007531 545.745569zM514.163269 772.83154c-0.691755 0.356111-1.435699 0.51984-2.163269 0.51984s-1.470491-0.163729-2.162246-0.51984c-5.008061-2.606361-81.292468-42.995233-130.62299-101.135398-8.810666-9.92914-16.58063-20.545942-22.728654-31.798217-15.013949-25.874297-22.801309-54.079686-16.708544-83.347267 10.860349-52.085262 43.329854-86.418208 86.86437-91.838661 35.060517-4.284583 69.225641 11.996219 85.358063 39.885406 16.133446-27.904537 50.318012-44.245713 85.358063-39.885406 43.534516 5.420453 76.005045 39.733956 86.865393 91.838661C707.955974 670.408823 522.097986 768.714779 514.163269 772.83154L514.163269 772.83154zM514.163269 772.83154"  /></svg>