<svg xmlns="http://www.w3.org/2000/svg" version="1.1" viewBox="-5.0 -10.0 110.0 135.0">
 <path d="m81.926 74.496h-4.6562c-0.074219 0-0.14062-0.042969-0.16797-0.11328-2.6602-6.7461-7.6289-11.336-14.715-13.918-0.12109-0.042969-0.16016-0.19922-0.066407-0.29297 2.9648-3.0586 4.8906-7.1836 5.3086-11.637 0.007813-0.09375 0.085938-0.16406 0.17969-0.16406h3.7812c0.089844 0 0.16797-0.066406 0.17969-0.15625l0.30078-2.3633c0.011719-0.089843 0.085938-0.15625 0.17969-0.15625h1.0234c1.4648 0 2.7266-0.58203 3.5625-1.6445l2.7891-3.543c0.046875-0.058593 0.125-0.082031 0.19922-0.058593 4.4297 1.5 7.7148 4.0117 9.8398 7.8906 0.042969 0.078125 0.023438 0.17578-0.050781 0.23047l-5.9492 4.3945c-1.0195 0.75391-1.5547 1.7617-1.5547 2.9375v18.418c-0.007813 0.09375-0.085937 0.17578-0.18359 0.17578zm-54.141-34.391c-6.6758-0.35547-11.672-6.0586-12.035-12.68-0.003906-0.09375-0.082031-0.16797-0.17969-0.16797h-1.9414c-0.089844 0-0.16797-0.066406-0.17969-0.16016-0.99609-8.4805 5.1211-16.07 13.477-17.012 0.10547-0.011719 0.19922 0.070312 0.19922 0.17969v11.805c0 0.097657-0.082031 0.17969-0.17969 0.17969h-4.1484c-1.6484 0-3.0469 1.0117-3.5586 2.5781l-0.78906 2.3633c-0.027344 0.035156-0.042969 0.078125-0.039063 0.125 0.30859 5.4023 4.4062 10.055 9.8555 10.145 0.11719 0.003906 0.19922 0.11328 0.17188 0.22266-0.19141 0.74219-0.34766 1.5-0.46484 2.2695-0.015625 0.09375-0.097656 0.16016-0.1875 0.15234zm44.395 0c6.6758-0.35547 11.672-6.0586 12.035-12.68 0.003906-0.09375 0.082031-0.16797 0.17969-0.16797h1.9805c0.089844 0 0.16797-0.066406 0.17969-0.16016 0.99609-8.4805-5.1211-16.07-13.477-17.012-0.10547-0.011719-0.19922 0.070312-0.19922 0.17969v11.805c0 0.097657 0.082032 0.17969 0.17969 0.17969h4.1484c1.6484 0 3.0469 1.0117 3.5586 2.5781l0.79297 2.4062c-0.27344 5.4375-4.3828 10.133-9.8594 10.227-0.11719 0.003906-0.19922 0.11328-0.17188 0.22266 0.19141 0.74219 0.34766 1.5 0.46484 2.2695 0.011718 0.09375 0.09375 0.16016 0.1875 0.15234zm-6.4141 5.7969c0-0.097656 0.082031-0.17578 0.17969-0.17578h3.3203c0.089844 0 0.16797-0.066406 0.17969-0.16016 1.332-11.102-6.8711-21-17.902-21.859-0.10547-0.007812-0.19531 0.074219-0.19531 0.17969v15.254c0 0.097656 0.082032 0.17969 0.17969 0.17969h5.9688c2.1055 0 3.8945 1.2969 4.5547 3.2969 0.53125 1.6172 0.38281 0.89453 0.42188 2.6523 0.097656 3.6484-1.168 7.2539-3.6758 9.9297-4.8398 5.1719-12.676 5.1719-17.516 0-2.5039-2.6758-3.7734-6.2812-3.6758-9.9297l0.023437-1.6523 0.32031-1c0.65625-2 2.4453-3.2969 4.5547-3.2969h5.9688c0.097656 0 0.17969-0.082031 0.17969-0.17969v-15.25c0-0.10547-0.089844-0.1875-0.19531-0.17969-11.027 0.85547-19.23 10.758-17.898 21.859 0.011718 0.089844 0.085937 0.16016 0.17969 0.16016h3.3984c0.097656 0 0.17969 0.078125 0.17969 0.17578 0.10547 8.8047 6.8359 16.469 15.727 16.469 8.8867 0 15.613-7.6641 15.723-16.473zm25.555 28.594c1.0898 0 1.793-1.1094 1.7695-2.2227-0.0625-3.0625-0.22266-6.1211-0.47266-9.1836-0.36328-4.3984-0.5-8.2734-1.6992-11.855-0.039063-0.11719-0.17969-0.16016-0.27734-0.085937l-5.3867 3.9766c-0.27734 0.20703-0.46094 0.41797-0.46094 0.76953v18.418c0 0.097656 0.082031 0.17969 0.17969 0.17969zm-58.203 4.8594c0.046874 0.035156 0.074218 0.085937 0.074218 0.14453v10.27c0 0.097657 0.082032 0.17969 0.17969 0.17969h33.27c0.097656 0 0.17969-0.082031 0.17969-0.17969v-10.27c0-0.058594 0.027344-0.10938 0.074219-0.14453l6.5039-4.8008c0.074218-0.054688 0.09375-0.15234 0.050781-0.23047-2.7188-4.9922-6.9375-8.2148-12.637-10.141-0.074219-0.023438-0.14844-0.003906-0.19922 0.058594l-3.5898 4.5547c-1.0703 1.3555-2.6797 2.1016-4.5547 2.1016h-4.9258c-1.875 0-3.4844-0.74219-4.5547-2.1016l-3.5898-4.5547c-0.046876-0.058594-0.125-0.082032-0.19922-0.058594-5.6992 1.9219-9.9141 5.1484-12.637 10.141-0.042969 0.078125-0.023438 0.17578 0.050781 0.23047zm-10.059 10.398c0.35156-4.5703 0.74609-8.6992 2.1953-12.57 0.042969-0.11328 0.17969-0.15234 0.27344-0.082032l4.8945 3.6133c0.046875 0.035156 0.074219 0.085937 0.074219 0.14453v8.9102c0 0.097657-0.082032 0.17969-0.17969 0.17969h-7.0781c-0.10547 0-0.1875-0.089844-0.17969-0.19531zm34.145-25.535-2.2969 2.9141c-0.60156 0.76563-1.4844 1.0742-2.4414 1.0742h-4.9258c-0.95703 0-1.8359-0.30859-2.4414-1.0742l-2.293-2.9102c-0.11719-0.14844 0.042968-0.35156 0.21484-0.27344 4.4258 2 9.543 2 13.965-0.003907 0.17578-0.078124 0.33594 0.125 0.21875 0.27344zm17.547 12.965c1.4492 3.8711 1.8438 8 2.1953 12.57 0.007813 0.10547-0.074218 0.19531-0.17969 0.19531h-7.0781c-0.097656 0-0.17969-0.082031-0.17969-0.17969v-8.9102c0-0.058594 0.027344-0.10938 0.074219-0.14453l4.8945-3.6133c0.097657-0.066406 0.23438-0.027343 0.27344 0.082032zm-4.75-54.934h-4.5195c-1.4766 0-2.75 0.8125-3.3711 2.1055-0.046875 0.097656-0.16797 0.13281-0.25781 0.074219-1.6328-1.0312-3.4102-1.8555-5.293-2.4375-0.089844-0.027344-0.14453-0.12109-0.12109-0.21094 1.4922-6.332 6.9141-11.148 13.551-11.73 0.10547-0.007812 0.19531 0.074219 0.19531 0.17969v11.84c-0.003906 0.097657-0.085938 0.17969-0.18359 0.17969zm-26.828-0.16797-5.0312 2.3828c-0.089844 0.042968-0.19531 0.003906-0.23828-0.085938-0.61719-1.3047-1.8984-2.1289-3.3828-2.1289h-4.5195c-0.097656 0-0.17969-0.082031-0.17969-0.17969v-11.84c0-0.10547 0.089844-0.1875 0.19531-0.17969 6.6367 0.58203 12.059 5.3984 13.551 11.73 0.050782 0.21484-0.23047 0.24609-0.46484 0.32031zm-20.441 52.414h-4.6523c-0.097656 0-0.17969-0.082032-0.17969-0.17969v-18.418c0-1.1758-0.53516-2.1836-1.5547-2.9375l-5.9492-4.3945c-0.074219-0.054687-0.09375-0.15234-0.050781-0.23047 2.1211-3.8789 5.4062-6.3906 9.8398-7.8906 0.074218-0.023437 0.15234-0.003906 0.19922 0.058594l2.7891 3.543c0.83594 1.0625 2.0977 1.6445 3.5625 1.6445h1.0234c0.089844 0 0.16797 0.066406 0.17969 0.15625l0.30078 2.3633c0.011719 0.089843 0.085938 0.15625 0.17969 0.15625h3.7812c0.09375 0 0.16797 0.070312 0.17969 0.16406 0.41406 4.4531 2.3398 8.5781 5.3086 11.637 0.089844 0.09375 0.054688 0.25-0.066406 0.29297-7.0859 2.5859-12.055 7.1758-14.715 13.918-0.039062 0.074219-0.10156 0.11719-0.17578 0.11719zm-7.707 0c0.097656 0 0.17969-0.082032 0.17969-0.17969v-18.418c0-0.35156-0.18359-0.56641-0.46094-0.76953l-5.3867-3.9766c-0.097657-0.074219-0.23828-0.027344-0.27734 0.085937-1.1992 3.582-1.3398 7.457-1.6992 11.855-0.25 3.0625-0.41016 6.1211-0.47266 9.1836-0.023438 1.1133 0.67969 2.2227 1.7695 2.2227z" fill="#285347" fill-rule="evenodd"/>
</svg>