<svg class="svg-icon" style="width: 1em;height: 1em;vertical-align: middle;fill: #285347;overflow: hidden;" viewBox="0 0 1024 1024" version="1.1" xmlns="http://www.w3.org/2000/svg"><path d="M652.8 371.2c-25.6-102.4-119.466667-179.2-226.133333-179.2C298.666667 192 192 298.666667 192 426.666667c0 110.933333 76.8 200.533333 179.2 226.133333 25.6 102.4 119.466667 179.2 226.133333 179.2 128 0 234.666667-106.666667 234.666667-234.666667 0-110.933333-76.8-200.533333-179.2-226.133333zM597.333333 789.333333c-85.333333 0-153.6-55.466667-179.2-128h8.533334c128 0 234.666667-106.666667 234.666666-234.666666v-8.533334c76.8 25.6 128 98.133333 128 179.2 0 106.666667-85.333333 192-192 192z"  /></svg>