<svg xmlns="http://www.w3.org/2000/svg" xmlns:xlink="http://www.w3.org/1999/xlink" version="1.1" x="0px" y="0px" fill="#285347" viewBox="0 0 159.286 282.6325" style="enable-background:new 0 0 159.286 226.106;" xml:space="preserve"><g><ellipse transform="matrix(0.9986 -0.0526 0.0526 0.9986 -1.0329 7.2233)" cx="136.791" cy="23.246" rx="22.494" ry="22.495"/><path d="M85.737,37.706c0.027-0.003,0.054-0.004,0.081-0.008c-0.051-0.086-0.101-0.17-0.151-0.254   c-0.067,0.088-0.143,0.168-0.212,0.255h0.092C85.61,37.699,85.673,37.701,85.737,37.706z"/><path d="M91.455,17.28c3.824,0,7.363,2.226,9.018,5.67c0,0,0.002,0.002,0.004,0.007c-0.002-0.005-0.004-0.007-0.004-0.007   s0.042,0.082,0.094,0.189c0.081,0.16,0.196,0.38,0.349,0.668c0.322,0.611,0.87,1.611,1.669,2.957   c0.93,1.571,2.287,3.741,4.044,6.274c0.859-1.705,1.312-3.555,1.24-5.497c-0.315-8.527-7.751-18.76-22.313-20.067   c2.246,2.895,3.837,6.277,4.618,9.896C90.598,17.315,91.024,17.28,91.455,17.28z"/><path d="M39.192,115.971l-4.993,97.137c-0.351,6.82,4.895,12.631,11.712,12.981c6.82,0.351,12.633-4.892,12.982-11.712l4.669-90.83   h5.971l4.668,90.83c0.352,6.82,6.164,12.063,12.982,11.712c6.818-0.351,12.063-6.161,11.713-12.981l-5.621-109.375V70.656   l-5.513-7.323c-1.607-2.135-2.286-4.767-1.914-7.411c0.373-2.644,1.754-4.986,3.887-6.593c0.877-0.66,1.837-1.164,2.852-1.502   c-1.198-1.622-2.291-3.179-3.282-4.651c-0.851-1.263-1.622-2.459-2.325-3.585c-0.422,0.033-0.815,0.074-1.165,0.121   c-0.09-0.003-0.177-0.014-0.268-0.014h-1.859c-1.69,1.721-3.618,3.19-5.741,4.342c-3.492,1.895-7.481,2.959-11.696,2.959   c-1.867,0-3.742-0.216-5.576-0.643c-0.292-0.068-0.569-0.166-0.857-0.244c-4.228-1.145-7.998-3.35-11.011-6.414H46.91   c-0.357,0-0.706,0.033-1.05,0.08c0.771,2.292,1.545,5.235,2.071,8.797c0.395,2.675,0.654,5.683,0.651,9.039   c0.016,9.139-1.908,22.228-9.398,38.592v19.613C39.184,115.871,39.19,115.921,39.192,115.971z"/><path d="M90.085,28.054c-0.641,2.755-1.725,5.302-3.16,7.579c0.346,0.592,0.728,1.229,1.145,1.907   c0.385,0.628,0.8,1.29,1.246,1.987c0.676,1.054,1.415,2.175,2.232,3.364c0.97,1.411,2.05,2.914,3.224,4.478   c0.321-0.031,0.645-0.052,0.972-0.052c3.175,0,6.088,1.454,7.995,3.986l15.291,20.311l0.92,1.222   c0.558,0.426,1.114,0.852,1.685,1.273c2.583,1.901,5.305,3.754,8.181,5.527c1.305,0.801,2.749,1.183,4.176,1.183   c2.689,0,5.316-1.355,6.827-3.816c2.311-3.766,1.131-8.691-2.634-11.002c-13.571-8.319-23.563-18.982-30.094-27.553   c-0.942-1.235-1.804-2.418-2.603-3.55c-1.971-2.792-3.514-5.237-4.624-7.111c-0.78-1.315-1.351-2.352-1.714-3.038   c-0.183-0.343-0.313-0.596-0.392-0.754c-0.039-0.078-0.066-0.135-0.08-0.162l-0.005-0.01c-1.52-3.168-4.853-4.872-8.158-4.479   C90.888,22.174,90.77,25.114,90.085,28.054z"/><path d="M51.732,39.698c2.632,2.222,5.811,3.876,9.396,4.711c7.183,1.672,14.364-0.3,19.603-4.711   c0.734-0.618,1.426-1.289,2.079-1.999c0.625-0.68,1.21-1.4,1.75-2.158c0.437-0.613,0.843-1.252,1.219-1.913   c1.047-1.841,1.854-3.859,2.359-6.028c0.61-2.622,0.733-5.243,0.431-7.769c-0.081-0.678-0.196-1.349-0.337-2.012   c-0.838-3.926-2.715-7.548-5.396-10.489c-2.962-3.248-6.901-5.666-11.506-6.739c-9.784-2.277-19.563,2.208-24.438,10.405   c-1.154,1.94-2.035,4.087-2.574,6.402c-1.748,7.51,0.489,15.013,5.328,20.302C50.296,38.408,50.993,39.074,51.732,39.698z"/><path d="M18.662,44.129c0.011,0.046,0.025,0.092,0.036,0.138c0.028,0.117,0.059,0.234,0.091,0.351   c0.089,0.324,0.193,0.645,0.309,0.964c0.215,0.59,0.462,1.173,0.773,1.739c0.006,0.012,0.014,0.028,0.025,0.055   c0.117,0.268,0.472,1.107,0.826,2.524c0.428,1.711,0.854,4.267,0.858,7.713c-0.003,1.015-0.045,2.117-0.133,3.296   c-0.058,0.78-0.137,1.593-0.243,2.446c-0.219,1.769-0.551,3.696-1.027,5.78c0.391,0.778,0.913,1.677,1.617,2.696   c1.935,2.82,5.895,7.56,13.787,14.148c0.614,0.514,1.142,1.091,1.6,1.707c0.907,1.218,1.512,2.603,1.793,4.048   c0.069-0.165,0.141-0.331,0.209-0.496c5.532-13.326,7.416-24.634,7.398-33.625c0.003-3.155-0.229-5.991-0.59-8.518   c-0.541-3.792-1.375-6.857-2.187-9.171c-0.255-0.729-0.506-1.385-0.746-1.962c-0.633-1.523-1.178-2.53-1.442-2.97   c-0.419-0.715-0.902-1.369-1.431-1.967c1.569-0.084,2.712,0.198,3.156,0.955c0.192,0.321,0.946,1.64,1.823,3.877   c0.575-0.103,1.159-0.158,1.744-0.158h0.124c-0.568-0.721-1.11-1.468-1.602-2.259c-3.458-5.555-4.545-12.123-3.061-18.496   c0.422-1.812,1.052-3.524,1.83-5.139c-4.646,1.445-9.522,3.262-14.927,5.529c-13.532,6.93-13.25,16.938-11.022,25.35   c0.05-0.018,0.101-0.037,0.15-0.055C18.456,43.131,18.547,43.632,18.662,44.129z"/><path d="M22.754,101.321c-4.331-3.626-7.992-7.063-11.082-10.376c-2.493,4.669-5.576,9.727-9.401,15.19   c-3.966,5.648-2.604,13.445,3.046,17.414c2.185,1.533,4.691,2.27,7.172,2.27c3.936,0,7.81-1.854,10.242-5.318   c4.439-6.308,8.11-12.323,11.14-18.038c-1.432,0.764-3.038,1.189-4.706,1.189C26.824,103.652,24.547,102.824,22.754,101.321z"/><path d="M24.037,99.788c1.497,1.252,3.316,1.863,5.127,1.863c2.287,0,4.559-0.977,6.143-2.868c2.834-3.39,2.383-8.435-1.006-11.269   c-7.02-5.859-11.57-10.782-14.152-14.547c-0.249-0.36-0.462-0.696-0.674-1.032c-0.602-0.951-1.073-1.81-1.421-2.563   c-0.193-0.417-0.352-0.802-0.482-1.159c-0.42-1.154-0.544-1.996-0.535-2.515c0-0.003,0-0.008,0-0.012   c0.002-0.423,0.058-0.701,0.145-0.972c0.001-0.003,0.002-0.005,0.003-0.008c0.143-0.426,0.399-0.897,1.031-1.546   c0.282-0.297,0.656-0.615,1.101-0.941c0.181-1.681,0.26-3.221,0.264-4.613c-0.002-5.493-1.148-8.577-1.511-9.414   c-0.559-1.035-0.434-2.179,0.179-3.359c-1.594,0.625-3.173,1.331-4.712,2.16c-2.375,1.291-4.673,2.868-6.717,4.935   c-2.025,2.048-3.794,4.644-4.811,7.711c-0.004,0.011-0.009,0.021-0.013,0.033c-0.631,1.89-0.962,3.937-0.96,6.015   c0,0.003,0,0.007,0,0.01c0.002,0.608,0.041,1.213,0.094,1.818c0.435,4.885,2.505,9.679,5.846,14.534   c1.222,1.768,2.645,3.569,4.242,5.409c0.463,0.533,0.94,1.07,1.437,1.611C15.759,92.454,19.506,95.994,24.037,99.788z"/><path d="M120.486,79.11c-0.007-0.125-0.024-0.251-0.038-0.377c-0.015-0.142-0.028-0.285-0.05-0.427   c-0.199-1.249-0.694-2.469-1.507-3.549l-0.345-0.458l-5.102-6.777l-11.304-15.016c-1.455-1.933-3.618-3.013-5.857-3.164   c-0.803-0.054-1.615,0.009-2.409,0.2c-1.033,0.248-2.034,0.705-2.937,1.386c-3.529,2.656-4.237,7.67-1.579,11.201l3.915,5.201   l2,2.657l7.015,9.319l3.819,5.073c0.021,0.027,0.044,0.05,0.065,0.076c0.152,0.196,0.312,0.384,0.48,0.564   c0.044,0.046,0.085,0.095,0.129,0.14c0.194,0.198,0.396,0.387,0.608,0.563c0.063,0.052,0.13,0.099,0.194,0.148   c0.153,0.119,0.309,0.233,0.469,0.341c0.091,0.062,0.184,0.12,0.277,0.177c0.156,0.096,0.316,0.184,0.479,0.269   c0.079,0.041,0.157,0.086,0.237,0.125c0.241,0.115,0.488,0.219,0.741,0.31c0.056,0.021,0.114,0.036,0.17,0.055   c0.21,0.071,0.423,0.133,0.64,0.186c0.074,0.018,0.148,0.034,0.222,0.05c0.213,0.045,0.428,0.082,0.646,0.11   c0.063,0.008,0.126,0.019,0.19,0.026c0.279,0.029,0.56,0.047,0.84,0.047c0.003,0,0.005,0,0.007,0c0.006,0,0.012-0.001,0.018-0.001   c0.377-0.002,0.759-0.034,1.142-0.09c0.045-0.006,0.089-0.01,0.133-0.017c0.362-0.059,0.72-0.149,1.075-0.26   c0.082-0.025,0.162-0.052,0.243-0.08c0.368-0.127,0.725-0.273,1.064-0.448c0.01-0.005,0.019-0.012,0.029-0.017   c0.372-0.194,0.722-0.419,1.054-0.665c0.016-0.012,0.033-0.019,0.049-0.031c0.011-0.008,0.02-0.017,0.03-0.025   c0.166-0.127,0.324-0.261,0.479-0.399c0.048-0.043,0.098-0.082,0.145-0.125c0.129-0.121,0.25-0.251,0.371-0.38   c0.063-0.067,0.129-0.131,0.189-0.199c0.088-0.101,0.167-0.208,0.25-0.313c0.08-0.102,0.165-0.201,0.24-0.306   c0.056-0.079,0.104-0.163,0.158-0.244c0.089-0.135,0.181-0.268,0.26-0.407c0.06-0.104,0.11-0.213,0.166-0.32   c0.062-0.119,0.128-0.235,0.183-0.357c0.412-0.907,0.647-1.881,0.702-2.868c0.002-0.035,0.007-0.07,0.009-0.105   c0.007-0.164,0.002-0.329-0.001-0.494C120.489,79.315,120.492,79.213,120.486,79.11z" /></g></svg>