<svg width="1080" height="1080" viewBox="0 0 1080 1080" fill="none" xmlns="http://www.w3.org/2000/svg">
<rect width="1080" height="1080" fill="#285347"/>
<path d="M142.212 514.962C143.43 512.717 144.52 510.119 145.482 507.168C146.507 504.217 147.341 500.593 147.982 496.295C148.687 491.933 149.232 486.77 149.616 480.804C150.001 474.774 150.193 467.558 150.193 459.155H218.468V514.962H230.007V542.769H211.16V530.742H153.848V542.769H135V514.962H142.212ZM198.659 514.962V474.935H169.041C169.041 484.685 168.336 492.96 166.925 499.759C165.515 506.495 163.977 511.562 162.31 514.962H198.659Z" fill="#F8F7F3"/>
<path d="M302.928 459.155V474.742H256.963V486.385H301.485V502.55H256.963V514.962H303.505V530.742H237.442V459.155H302.928Z" fill="#F8F7F3"/>
<path d="M372.026 474.935H341.254C341.254 484.685 340.998 493.184 340.485 500.433C339.972 507.681 339.074 513.262 337.792 517.175C337.215 518.907 336.478 520.575 335.581 522.178C334.683 523.782 333.465 525.225 331.926 526.508C330.388 527.791 328.433 528.817 326.061 529.587C323.689 530.357 320.708 530.742 317.118 530.742H310.002V513.903H310.675C313.624 513.903 315.771 513.326 317.118 512.172C318.528 511.017 319.522 509.702 320.099 508.227C320.419 507.393 320.708 506.462 320.964 505.436C321.221 504.41 321.413 503.127 321.541 501.587C321.733 499.984 321.894 498.059 322.022 495.814C322.15 493.505 322.246 490.683 322.31 487.347C322.374 483.947 322.406 479.97 322.406 475.416C322.471 470.797 322.503 465.377 322.503 459.155H391.835V530.742H372.026V474.935Z" fill="#F8F7F3"/>
<path d="M449.679 458C458.013 458 464.937 459.123 470.45 461.368C476.027 463.549 480.451 466.371 483.72 469.835C486.99 473.235 489.298 477.019 490.644 481.189C491.99 485.358 492.663 489.4 492.663 493.313V496.199C492.663 500.048 491.99 504.089 490.644 508.323C489.298 512.492 486.99 516.341 483.72 519.869C480.451 523.333 476.027 526.22 470.45 528.529C464.937 530.774 458.013 531.896 449.679 531.896H445.448C439.871 531.896 434.935 531.383 430.639 530.357C426.344 529.266 422.594 527.823 419.389 526.027C416.247 524.231 413.587 522.178 411.407 519.869C409.228 517.496 407.465 514.994 406.118 512.364C404.836 509.67 403.907 506.944 403.33 504.185C402.753 501.427 402.464 498.765 402.464 496.199V493.313C402.464 490.683 402.753 488.02 403.33 485.326C403.907 482.568 404.836 479.874 406.118 477.244C407.465 474.614 409.228 472.144 411.407 469.835C413.587 467.462 416.247 465.409 419.389 463.677C422.594 461.945 426.344 460.566 430.639 459.54C434.935 458.513 439.871 458 445.448 458H449.679ZM472.085 494.082C472.085 491.901 471.732 489.656 471.027 487.347C470.386 484.973 469.168 482.825 467.373 480.9C465.578 478.976 463.078 477.404 459.872 476.185C456.731 474.967 452.628 474.357 447.564 474.357C442.563 474.357 438.461 474.967 435.255 476.185C432.114 477.404 429.614 478.976 427.755 480.9C425.96 482.825 424.71 484.973 424.004 487.347C423.363 489.656 423.043 491.901 423.043 494.082V495.429C423.043 497.61 423.395 499.887 424.1 502.261C424.806 504.57 426.056 506.719 427.851 508.708C429.71 510.632 432.21 512.236 435.351 513.519C438.557 514.801 442.628 515.443 447.564 515.443C452.564 515.443 456.667 514.801 459.872 513.519C463.078 512.236 465.578 510.632 467.373 508.708C469.168 506.719 470.386 504.57 471.027 502.261C471.732 499.887 472.085 497.61 472.085 495.429V494.082Z" fill="#F8F7F3"/>
<path d="M579.759 504.185C576.682 504.57 573.701 504.891 570.816 505.147C567.931 505.34 565.046 505.436 562.161 505.436C556.392 505.436 551.135 505.115 546.391 504.474C541.647 503.832 537.576 502.55 534.178 500.625C530.845 498.701 528.249 496.007 526.389 492.543C524.594 489.015 523.697 484.396 523.697 478.687V459.155H543.506V475.416C543.506 478.302 543.891 480.676 544.66 482.536C545.429 484.396 546.647 485.872 548.314 486.962C550.045 487.988 552.257 488.726 554.949 489.175C557.706 489.56 561.007 489.752 564.854 489.752C566.264 489.752 567.707 489.72 569.181 489.656C570.656 489.592 572.066 489.528 573.412 489.464C574.758 489.335 575.976 489.207 577.066 489.079C578.156 488.951 579.054 488.822 579.759 488.694V459.155H599.568V530.742H579.759V504.185Z" fill="#F8F7F3"/>
<path d="M678.857 459.155V474.742H632.892V486.385H677.415V502.55H632.892V514.962H679.434V530.742H613.372V459.155H678.857Z" fill="#F8F7F3"/>
<path d="M729.588 531.8C724.139 531.8 719.331 531.255 715.164 530.165C710.997 529.074 707.375 527.631 704.298 525.835C701.285 523.974 698.72 521.858 696.605 519.484C694.553 517.111 692.887 514.609 691.605 511.979C690.387 509.285 689.521 506.591 689.008 503.897C688.495 501.202 688.239 498.637 688.239 496.199V493.313C688.239 490.811 688.495 488.213 689.008 485.519C689.521 482.825 690.387 480.195 691.605 477.629C692.887 474.999 694.553 472.497 696.605 470.124C698.72 467.75 701.285 465.698 704.298 463.966C707.375 462.17 710.997 460.758 715.164 459.732C719.331 458.641 724.139 458.096 729.588 458.096H734.012C741.512 458.096 747.795 458.93 752.859 460.598C757.988 462.266 762.123 464.447 765.264 467.141C768.405 469.835 770.649 472.882 771.995 476.282C773.341 479.617 774.015 482.985 774.015 486.385V486.577H753.628C753.564 486.064 753.276 485.166 752.763 483.883C752.25 482.536 751.224 481.157 749.686 479.746C748.147 478.334 745.968 477.116 743.147 476.089C740.326 474.999 736.544 474.454 731.8 474.454C727.441 474.454 723.786 475.031 720.838 476.185C717.889 477.276 715.517 478.751 713.722 480.612C711.927 482.408 710.644 484.492 709.875 486.866C709.17 489.175 708.817 491.516 708.817 493.89V495.237C708.817 497.482 709.202 499.791 709.971 502.165C710.741 504.474 712.023 506.623 713.818 508.611C715.613 510.6 717.985 512.236 720.934 513.519C723.883 514.737 727.537 515.347 731.896 515.347C736.64 515.347 740.422 514.801 743.243 513.711C746.128 512.621 748.307 511.37 749.782 509.958C751.321 508.483 752.314 507.072 752.763 505.725C753.276 504.314 753.564 503.319 753.628 502.742H774.015V503.031C774.015 506.302 773.341 509.638 771.995 513.037C770.713 516.437 768.501 519.548 765.36 522.371C762.283 525.129 758.18 527.406 753.051 529.202C747.923 530.934 741.576 531.8 734.012 531.8H729.588Z" fill="#F8F7F3"/>
<path d="M806.716 475.512H779.022V459.155H854.123V475.512H826.429V530.742H806.716V475.512Z" fill="#F8F7F3"/>
<path d="M925.191 482.632L883.361 530.742H863.552V459.155H883.361V507.264L925.191 459.155H945V530.742H925.191V482.632Z" fill="#F8F7F3"/>
<path d="M207.12 610.62C202.84 610.62 199.24 609.2 196.32 606.36C193.44 603.48 192 599.76 192 595.2C192 590.08 192.76 586.16 194.28 583.44C195.8 580.68 198.88 578.18 203.52 575.94C205 575.26 206.16 574.74 207 574.38C208.4 573.82 209.5 573.34 210.3 572.94C213.78 571.34 215.54 569.36 215.58 567L218.7 568.8C218.5 569.8 218.18 570.7 217.74 571.5C217.22 572.38 216.7 573.08 216.18 573.6C215.7 574.12 214.94 574.68 213.9 575.28C213.22 575.68 212.4 576.12 211.44 576.6L208.44 577.86L205.62 579.06C202.86 580.26 200.8 581.52 199.44 582.84C198.12 584.12 197.18 585.8 196.62 587.88C197.9 586.16 199.58 584.86 201.66 583.98C203.74 583.06 205.84 582.6 207.96 582.6C211.96 582.6 215.26 583.92 217.86 586.56C220.5 589.16 221.82 592.5 221.82 596.58C221.82 600.62 220.42 603.98 217.62 606.66C214.86 609.3 211.36 610.62 207.12 610.62ZM199.32 603.72C201.4 605.68 204 606.66 207.12 606.66C210.24 606.66 212.8 605.72 214.8 603.84C216.84 601.92 217.86 599.5 217.86 596.58C217.86 593.62 216.9 591.2 214.98 589.32C213.1 587.4 210.58 586.44 207.42 586.44C204.58 586.44 202 587.34 199.68 589.14C197.36 590.86 196.2 593.22 196.2 596.22C196.2 599.26 197.24 601.76 199.32 603.72Z" fill="#F8F7F3"/>
<path d="M229.191 579.9H250.671V609.9H246.711V583.74H233.151V597.12C233.151 602.12 232.191 605.56 230.271 607.44C228.391 609.32 225.791 610.14 222.471 609.9V606.18C224.791 606.42 226.491 605.86 227.571 604.5C228.651 603.14 229.191 600.68 229.191 597.12V579.9Z" fill="#F8F7F3"/>
<path d="M284.259 585.78V579.9H288.219V609.9H284.259V604.02C281.499 608.42 277.459 610.62 272.139 610.62C267.859 610.62 264.199 609.1 261.159 606.06C258.159 603.02 256.659 599.3 256.659 594.9C256.659 590.5 258.159 586.78 261.159 583.74C264.199 580.7 267.859 579.18 272.139 579.18C277.459 579.18 281.499 581.38 284.259 585.78ZM264.039 603.36C266.319 605.64 269.119 606.78 272.439 606.78C275.759 606.78 278.559 605.64 280.839 603.36C283.119 601 284.259 598.18 284.259 594.9C284.259 591.58 283.119 588.78 280.839 586.5C278.559 584.18 275.759 583.02 272.439 583.02C269.119 583.02 266.319 584.18 264.039 586.5C261.759 588.78 260.619 591.58 260.619 594.9C260.619 598.18 261.759 601 264.039 603.36Z" fill="#F8F7F3"/>
<path d="M296.004 579.9H315.204V583.74H299.964V609.9H296.004V579.9Z" fill="#F8F7F3"/>
<path d="M343.395 606.12C340.315 609.12 336.595 610.62 332.235 610.62C327.795 610.62 324.055 609.12 321.015 606.12C317.975 603.08 316.455 599.34 316.455 594.9C316.455 590.46 317.975 586.74 321.015 583.74C324.055 580.7 327.795 579.18 332.235 579.18C336.635 579.18 340.355 580.7 343.395 583.74C346.475 586.74 348.015 590.46 348.015 594.9C348.015 599.3 346.475 603.04 343.395 606.12ZM323.835 603.36C326.115 605.64 328.915 606.78 332.235 606.78C335.555 606.78 338.355 605.64 340.635 603.36C342.915 601 344.055 598.18 344.055 594.9C344.055 591.58 342.915 588.78 340.635 586.5C338.355 584.18 335.555 583.02 332.235 583.02C328.915 583.02 326.115 584.18 323.835 586.5C321.555 588.78 320.415 591.58 320.415 594.9C320.415 598.18 321.555 601 323.835 603.36Z" fill="#F8F7F3"/>
<path d="M349.27 579.9H374.47V583.74H363.85V609.9H359.89V583.74H349.27V579.9Z" fill="#F8F7F3"/>
<path d="M397.776 594.48C401.056 595.68 402.696 598.02 402.696 601.5C402.696 603.98 401.856 606 400.176 607.56C398.536 609.12 396.236 609.9 393.276 609.9H378.696V579.9H392.076C394.956 579.9 397.196 580.64 398.796 582.12C400.436 583.6 401.256 585.54 401.256 587.94C401.256 590.94 400.096 593.12 397.776 594.48ZM392.076 583.74H382.656V592.86H392.076C395.556 592.86 397.296 591.3 397.296 588.18C397.296 586.78 396.836 585.7 395.916 584.94C395.036 584.14 393.756 583.74 392.076 583.74ZM382.656 606.06H393.276C395.036 606.06 396.376 605.64 397.296 604.8C398.256 603.96 398.736 602.78 398.736 601.26C398.736 599.82 398.256 598.7 397.296 597.9C396.376 597.1 395.036 596.7 393.276 596.7H382.656V606.06Z" fill="#F8F7F3"/>
<path d="M433.236 606.12C430.156 609.12 426.436 610.62 422.076 610.62C417.636 610.62 413.896 609.12 410.856 606.12C407.816 603.08 406.296 599.34 406.296 594.9C406.296 590.46 407.816 586.74 410.856 583.74C413.896 580.7 417.636 579.18 422.076 579.18C426.476 579.18 430.196 580.7 433.236 583.74C436.316 586.74 437.856 590.46 437.856 594.9C437.856 599.3 436.316 603.04 433.236 606.12ZM413.676 603.36C415.956 605.64 418.756 606.78 422.076 606.78C425.396 606.78 428.196 605.64 430.476 603.36C432.756 601 433.896 598.18 433.896 594.9C433.896 591.58 432.756 588.78 430.476 586.5C428.196 584.18 425.396 583.02 422.076 583.02C418.756 583.02 415.956 584.18 413.676 586.5C411.396 588.78 410.256 591.58 410.256 594.9C410.256 598.18 411.396 601 413.676 603.36Z" fill="#F8F7F3"/>
<path d="M459.963 579.18C464.243 579.18 467.883 580.7 470.883 583.74C473.923 586.78 475.443 590.5 475.443 594.9C475.443 599.3 473.923 603.02 470.883 606.06C467.883 609.1 464.243 610.62 459.963 610.62C454.643 610.62 450.603 608.42 447.843 604.02V621.9H443.883V579.9H447.843V585.78C450.603 581.38 454.643 579.18 459.963 579.18ZM451.263 603.36C453.543 605.64 456.343 606.78 459.663 606.78C462.983 606.78 465.783 605.64 468.063 603.36C470.343 601 471.483 598.18 471.483 594.9C471.483 591.58 470.343 588.78 468.063 586.5C465.783 584.18 462.983 583.02 459.663 583.02C456.343 583.02 453.543 584.18 451.263 586.5C448.983 588.78 447.843 591.58 447.843 594.9C447.843 598.18 448.983 601 451.263 603.36Z" fill="#F8F7F3"/>
<path d="M485.387 603L503.267 579.9H506.627V609.9H502.667V586.8L484.787 609.9H481.427V579.9H485.387V603Z" fill="#F8F7F3"/>
<path d="M510.802 579.9H536.002V583.74H525.382V609.9H521.422V583.74H510.802V579.9Z" fill="#F8F7F3"/>
<path d="M552.915 579.18C557.395 579.18 560.975 580.76 563.655 583.92C566.415 587.04 567.795 590.74 567.795 595.02C567.795 595.22 567.755 595.84 567.675 596.88H541.335C541.735 599.88 543.015 602.28 545.175 604.08C547.335 605.88 550.035 606.78 553.275 606.78C557.835 606.78 561.055 605.08 562.935 601.68L566.415 603.72C565.095 605.88 563.275 607.58 560.955 608.82C558.675 610.02 556.095 610.62 553.215 610.62C548.495 610.62 544.655 609.14 541.695 606.18C538.735 603.22 537.255 599.46 537.255 594.9C537.255 590.38 538.715 586.64 541.635 583.68C544.555 580.68 548.315 579.18 552.915 579.18ZM552.915 583.02C549.795 583.02 547.175 583.94 545.055 585.78C542.975 587.62 541.735 590.04 541.335 593.04H563.715C563.275 589.84 562.055 587.38 560.055 585.66C557.975 583.9 555.595 583.02 552.915 583.02Z" fill="#F8F7F3"/>
<path d="M575.443 579.9H596.923V609.9H592.963V583.74H579.403V597.12C579.403 602.12 578.443 605.56 576.523 607.44C574.643 609.32 572.043 610.14 568.723 609.9V606.18C571.043 606.42 572.743 605.86 573.823 604.5C574.903 603.14 575.443 600.68 575.443 597.12V579.9Z" fill="#F8F7F3"/>
<path d="M608.671 591.3H616.891C619.651 591.3 622.011 592.18 623.971 593.94C625.931 595.66 626.911 597.88 626.911 600.6C626.911 603.36 625.931 605.6 623.971 607.32C622.091 609.04 619.731 609.9 616.891 609.9H604.711V579.9H608.671V591.3ZM608.671 606.06H616.891C618.611 606.06 620.051 605.56 621.211 604.56C622.371 603.52 622.951 602.2 622.951 600.6C622.951 599 622.371 597.7 621.211 596.7C620.051 595.66 618.611 595.14 616.891 595.14H608.671V606.06Z" fill="#F8F7F3"/>
<path d="M653.535 592.98V579.9H657.495V609.9H653.535V596.82H636.255V609.9H632.295V579.9H636.255V592.98H653.535Z" fill="#F8F7F3"/>
<path d="M669.229 591.3H677.449C680.209 591.3 682.569 592.18 684.529 593.94C686.489 595.66 687.469 597.88 687.469 600.6C687.469 603.36 686.489 605.6 684.529 607.32C682.649 609.04 680.289 609.9 677.449 609.9H665.269V579.9H669.229V591.3ZM691.669 609.9V579.9H695.629V609.9H691.669ZM669.229 606.06H677.449C679.169 606.06 680.609 605.56 681.769 604.56C682.929 603.52 683.509 602.2 683.509 600.6C683.509 599 682.929 597.7 681.769 596.7C680.609 595.66 679.169 595.14 677.449 595.14H669.229V606.06Z" fill="#F8F7F3"/>
<path d="M723.858 575.1H708.258V571.62H723.858V575.1ZM707.418 603L725.298 579.9H728.658V609.9H724.698V586.8L706.818 609.9H703.458V579.9H707.418V603Z" fill="#F8F7F3"/>
<path d="M768.712 610.56V621.9H764.752V610.56C759.992 610.12 756.192 608.46 753.352 605.58C750.472 602.62 749.032 599.06 749.032 594.9C749.032 590.74 750.472 587.18 753.352 584.22C756.192 581.34 759.992 579.68 764.752 579.24V567.9H768.712V579.24C773.472 579.68 777.272 581.34 780.112 584.22C782.992 587.18 784.432 590.74 784.432 594.9C784.432 599.06 782.992 602.62 780.112 605.58C777.272 608.46 773.472 610.12 768.712 610.56ZM764.752 606.66V583.14C761.192 583.5 758.332 584.76 756.172 586.92C754.052 589.08 752.992 591.74 752.992 594.9C752.992 598.06 754.052 600.72 756.172 602.88C758.332 605.04 761.192 606.3 764.752 606.66ZM768.712 583.14V606.66C772.272 606.3 775.112 605.04 777.232 602.88C779.392 600.72 780.472 598.06 780.472 594.9C780.472 591.74 779.392 589.08 777.232 586.92C775.112 584.76 772.272 583.5 768.712 583.14Z" fill="#F8F7F3"/>
<path d="M815.567 606.12C812.487 609.12 808.767 610.62 804.407 610.62C799.967 610.62 796.227 609.12 793.187 606.12C790.147 603.08 788.627 599.34 788.627 594.9C788.627 590.46 790.147 586.74 793.187 583.74C796.227 580.7 799.967 579.18 804.407 579.18C808.807 579.18 812.527 580.7 815.567 583.74C818.647 586.74 820.187 590.46 820.187 594.9C820.187 599.3 818.647 603.04 815.567 606.12ZM796.007 603.36C798.287 605.64 801.087 606.78 804.407 606.78C807.727 606.78 810.527 605.64 812.807 603.36C815.087 601 816.227 598.18 816.227 594.9C816.227 591.58 815.087 588.78 812.807 586.5C810.527 584.18 807.727 583.02 804.407 583.02C801.087 583.02 798.287 584.18 796.007 586.5C793.727 588.78 792.587 591.58 792.587 594.9C792.587 598.18 793.727 601 796.007 603.36Z" fill="#F8F7F3"/>
<path d="M847.454 592.98V579.9H851.414V609.9H847.454V596.82H830.174V609.9H826.214V579.9H830.174V592.98H847.454Z" fill="#F8F7F3"/>
<path d="M884.388 579.9V606.06H888.588V617.94H884.628V609.9H860.148V617.94H856.188V606.06H859.848C861.888 603.34 862.908 599.56 862.908 594.72V579.9H884.388ZM864.648 606.06H880.428V583.74H866.868V594.72C866.868 599.36 866.128 603.14 864.648 606.06Z" fill="#F8F7F3"/>
</svg>
