<svg width="1080" height="1080" viewBox="0 0 1080 1080" fill="none" xmlns="http://www.w3.org/2000/svg">
<rect width="1080" height="1080" fill="#285347"/>
<path d="M142.212 876.962C143.43 874.717 144.52 872.119 145.482 869.168C146.507 866.217 147.341 862.593 147.982 858.295C148.687 853.933 149.232 848.77 149.616 842.804C150.001 836.774 150.193 829.558 150.193 821.155H218.468V876.962H230.007V904.769H211.16V892.742H153.848V904.769H135V876.962H142.212ZM198.659 876.962V836.935H169.041C169.041 846.685 168.336 854.96 166.925 861.759C165.515 868.495 163.977 873.562 162.31 876.962H198.659Z" fill="#F8F7F3"/>
<path d="M302.928 821.155V836.742H256.963V848.385H301.485V864.55H256.963V876.962H303.505V892.742H237.442V821.155H302.928Z" fill="#F8F7F3"/>
<path d="M372.026 836.935H341.254C341.254 846.685 340.998 855.184 340.485 862.433C339.972 869.681 339.074 875.262 337.792 879.175C337.215 880.907 336.478 882.575 335.581 884.178C334.683 885.782 333.465 887.225 331.926 888.508C330.388 889.791 328.433 890.817 326.061 891.587C323.689 892.357 320.708 892.742 317.118 892.742H310.002V875.903H310.675C313.624 875.903 315.771 875.326 317.118 874.172C318.528 873.017 319.522 871.702 320.099 870.227C320.419 869.393 320.708 868.462 320.964 867.436C321.221 866.41 321.413 865.127 321.541 863.587C321.733 861.984 321.894 860.059 322.022 857.814C322.15 855.505 322.246 852.683 322.31 849.347C322.374 845.947 322.406 841.97 322.406 837.416C322.471 832.797 322.503 827.377 322.503 821.155H391.835V892.742H372.026V836.935Z" fill="#F8F7F3"/>
<path d="M449.679 820C458.013 820 464.937 821.123 470.45 823.368C476.027 825.549 480.451 828.371 483.72 831.835C486.99 835.235 489.298 839.019 490.644 843.189C491.99 847.358 492.663 851.4 492.663 855.313V858.199C492.663 862.048 491.99 866.089 490.644 870.323C489.298 874.492 486.99 878.341 483.72 881.869C480.451 885.333 476.027 888.22 470.45 890.529C464.937 892.774 458.013 893.896 449.679 893.896H445.448C439.871 893.896 434.935 893.383 430.639 892.357C426.344 891.266 422.594 889.823 419.389 888.027C416.247 886.231 413.587 884.178 411.407 881.869C409.228 879.496 407.465 876.994 406.118 874.364C404.836 871.67 403.907 868.944 403.33 866.185C402.753 863.427 402.464 860.765 402.464 858.199V855.313C402.464 852.683 402.753 850.02 403.33 847.326C403.907 844.568 404.836 841.874 406.118 839.244C407.465 836.614 409.228 834.144 411.407 831.835C413.587 829.462 416.247 827.409 419.389 825.677C422.594 823.945 426.344 822.566 430.639 821.54C434.935 820.513 439.871 820 445.448 820H449.679ZM472.085 856.082C472.085 853.901 471.732 851.656 471.027 849.347C470.386 846.973 469.168 844.825 467.373 842.9C465.578 840.976 463.078 839.404 459.872 838.185C456.731 836.967 452.628 836.357 447.564 836.357C442.563 836.357 438.461 836.967 435.255 838.185C432.114 839.404 429.614 840.976 427.755 842.9C425.96 844.825 424.71 846.973 424.004 849.347C423.363 851.656 423.043 853.901 423.043 856.082V857.429C423.043 859.61 423.395 861.887 424.1 864.261C424.806 866.57 426.056 868.719 427.851 870.708C429.71 872.632 432.21 874.236 435.351 875.519C438.557 876.801 442.628 877.443 447.564 877.443C452.564 877.443 456.667 876.801 459.872 875.519C463.078 874.236 465.578 872.632 467.373 870.708C469.168 868.719 470.386 866.57 471.027 864.261C471.732 861.887 472.085 859.61 472.085 857.429V856.082Z" fill="#F8F7F3"/>
<path d="M579.759 866.185C576.682 866.57 573.701 866.891 570.816 867.147C567.931 867.34 565.046 867.436 562.161 867.436C556.392 867.436 551.135 867.115 546.391 866.474C541.647 865.832 537.576 864.55 534.178 862.625C530.845 860.701 528.249 858.007 526.389 854.543C524.594 851.015 523.697 846.396 523.697 840.687V821.155H543.506V837.416C543.506 840.302 543.891 842.676 544.66 844.536C545.429 846.396 546.647 847.872 548.314 848.962C550.045 849.988 552.257 850.726 554.949 851.175C557.706 851.56 561.007 851.752 564.854 851.752C566.264 851.752 567.707 851.72 569.181 851.656C570.656 851.592 572.066 851.528 573.412 851.464C574.758 851.335 575.976 851.207 577.066 851.079C578.156 850.951 579.054 850.822 579.759 850.694V821.155H599.568V892.742H579.759V866.185Z" fill="#F8F7F3"/>
<path d="M678.857 821.155V836.742H632.892V848.385H677.415V864.55H632.892V876.962H679.434V892.742H613.372V821.155H678.857Z" fill="#F8F7F3"/>
<path d="M729.588 893.8C724.139 893.8 719.331 893.255 715.164 892.165C710.997 891.074 707.375 889.631 704.298 887.835C701.285 885.974 698.72 883.858 696.605 881.484C694.553 879.111 692.887 876.609 691.605 873.979C690.387 871.285 689.521 868.591 689.008 865.897C688.495 863.202 688.239 860.637 688.239 858.199V855.313C688.239 852.811 688.495 850.213 689.008 847.519C689.521 844.825 690.387 842.195 691.605 839.629C692.887 836.999 694.553 834.497 696.605 832.124C698.72 829.75 701.285 827.698 704.298 825.966C707.375 824.17 710.997 822.758 715.164 821.732C719.331 820.641 724.139 820.096 729.588 820.096H734.012C741.512 820.096 747.795 820.93 752.859 822.598C757.988 824.266 762.123 826.447 765.264 829.141C768.405 831.835 770.649 834.882 771.995 838.282C773.341 841.617 774.015 844.985 774.015 848.385V848.577H753.628C753.564 848.064 753.276 847.166 752.763 845.883C752.25 844.536 751.224 843.157 749.686 841.746C748.147 840.334 745.968 839.116 743.147 838.089C740.326 836.999 736.544 836.454 731.8 836.454C727.441 836.454 723.786 837.031 720.838 838.185C717.889 839.276 715.517 840.751 713.722 842.612C711.927 844.408 710.644 846.492 709.875 848.866C709.17 851.175 708.817 853.516 708.817 855.89V857.237C708.817 859.482 709.202 861.791 709.971 864.165C710.741 866.474 712.023 868.623 713.818 870.611C715.613 872.6 717.985 874.236 720.934 875.519C723.883 876.737 727.537 877.347 731.896 877.347C736.64 877.347 740.422 876.801 743.243 875.711C746.128 874.621 748.307 873.37 749.782 871.958C751.321 870.483 752.314 869.072 752.763 867.725C753.276 866.314 753.564 865.319 753.628 864.742H774.015V865.031C774.015 868.302 773.341 871.638 771.995 875.037C770.713 878.437 768.501 881.548 765.36 884.371C762.283 887.129 758.18 889.406 753.051 891.202C747.923 892.934 741.576 893.8 734.012 893.8H729.588Z" fill="#F8F7F3"/>
<path d="M806.716 837.512H779.022V821.155H854.123V837.512H826.429V892.742H806.716V837.512Z" fill="#F8F7F3"/>
<path d="M925.191 844.632L883.361 892.742H863.552V821.155H883.361V869.264L925.191 821.155H945V892.742H925.191V844.632Z" fill="#F8F7F3"/>
<path d="M207.12 972.62C202.84 972.62 199.24 971.2 196.32 968.36C193.44 965.48 192 961.76 192 957.2C192 952.08 192.76 948.16 194.28 945.44C195.8 942.68 198.88 940.18 203.52 937.94C205 937.26 206.16 936.74 207 936.38C208.4 935.82 209.5 935.34 210.3 934.94C213.78 933.34 215.54 931.36 215.58 929L218.7 930.8C218.5 931.8 218.18 932.7 217.74 933.5C217.22 934.38 216.7 935.08 216.18 935.6C215.7 936.12 214.94 936.68 213.9 937.28C213.22 937.68 212.4 938.12 211.44 938.6L208.44 939.86L205.62 941.06C202.86 942.26 200.8 943.52 199.44 944.84C198.12 946.12 197.18 947.8 196.62 949.88C197.9 948.16 199.58 946.86 201.66 945.98C203.74 945.06 205.84 944.6 207.96 944.6C211.96 944.6 215.26 945.92 217.86 948.56C220.5 951.16 221.82 954.5 221.82 958.58C221.82 962.62 220.42 965.98 217.62 968.66C214.86 971.3 211.36 972.62 207.12 972.62ZM199.32 965.72C201.4 967.68 204 968.66 207.12 968.66C210.24 968.66 212.8 967.72 214.8 965.84C216.84 963.92 217.86 961.5 217.86 958.58C217.86 955.62 216.9 953.2 214.98 951.32C213.1 949.4 210.58 948.44 207.42 948.44C204.58 948.44 202 949.34 199.68 951.14C197.36 952.86 196.2 955.22 196.2 958.22C196.2 961.26 197.24 963.76 199.32 965.72Z" fill="#F8F7F3"/>
<path d="M229.191 941.9H250.671V971.9H246.711V945.74H233.151V959.12C233.151 964.12 232.191 967.56 230.271 969.44C228.391 971.32 225.791 972.14 222.471 971.9V968.18C224.791 968.42 226.491 967.86 227.571 966.5C228.651 965.14 229.191 962.68 229.191 959.12V941.9Z" fill="#F8F7F3"/>
<path d="M284.259 947.78V941.9H288.219V971.9H284.259V966.02C281.499 970.42 277.459 972.62 272.139 972.62C267.859 972.62 264.199 971.1 261.159 968.06C258.159 965.02 256.659 961.3 256.659 956.9C256.659 952.5 258.159 948.78 261.159 945.74C264.199 942.7 267.859 941.18 272.139 941.18C277.459 941.18 281.499 943.38 284.259 947.78ZM264.039 965.36C266.319 967.64 269.119 968.78 272.439 968.78C275.759 968.78 278.559 967.64 280.839 965.36C283.119 963 284.259 960.18 284.259 956.9C284.259 953.58 283.119 950.78 280.839 948.5C278.559 946.18 275.759 945.02 272.439 945.02C269.119 945.02 266.319 946.18 264.039 948.5C261.759 950.78 260.619 953.58 260.619 956.9C260.619 960.18 261.759 963 264.039 965.36Z" fill="#F8F7F3"/>
<path d="M296.004 941.9H315.204V945.74H299.964V971.9H296.004V941.9Z" fill="#F8F7F3"/>
<path d="M343.395 968.12C340.315 971.12 336.595 972.62 332.235 972.62C327.795 972.62 324.055 971.12 321.015 968.12C317.975 965.08 316.455 961.34 316.455 956.9C316.455 952.46 317.975 948.74 321.015 945.74C324.055 942.7 327.795 941.18 332.235 941.18C336.635 941.18 340.355 942.7 343.395 945.74C346.475 948.74 348.015 952.46 348.015 956.9C348.015 961.3 346.475 965.04 343.395 968.12ZM323.835 965.36C326.115 967.64 328.915 968.78 332.235 968.78C335.555 968.78 338.355 967.64 340.635 965.36C342.915 963 344.055 960.18 344.055 956.9C344.055 953.58 342.915 950.78 340.635 948.5C338.355 946.18 335.555 945.02 332.235 945.02C328.915 945.02 326.115 946.18 323.835 948.5C321.555 950.78 320.415 953.58 320.415 956.9C320.415 960.18 321.555 963 323.835 965.36Z" fill="#F8F7F3"/>
<path d="M349.27 941.9H374.47V945.74H363.85V971.9H359.89V945.74H349.27V941.9Z" fill="#F8F7F3"/>
<path d="M397.776 956.48C401.056 957.68 402.696 960.02 402.696 963.5C402.696 965.98 401.856 968 400.176 969.56C398.536 971.12 396.236 971.9 393.276 971.9H378.696V941.9H392.076C394.956 941.9 397.196 942.64 398.796 944.12C400.436 945.6 401.256 947.54 401.256 949.94C401.256 952.94 400.096 955.12 397.776 956.48ZM392.076 945.74H382.656V954.86H392.076C395.556 954.86 397.296 953.3 397.296 950.18C397.296 948.78 396.836 947.7 395.916 946.94C395.036 946.14 393.756 945.74 392.076 945.74ZM382.656 968.06H393.276C395.036 968.06 396.376 967.64 397.296 966.8C398.256 965.96 398.736 964.78 398.736 963.26C398.736 961.82 398.256 960.7 397.296 959.9C396.376 959.1 395.036 958.7 393.276 958.7H382.656V968.06Z" fill="#F8F7F3"/>
<path d="M433.236 968.12C430.156 971.12 426.436 972.62 422.076 972.62C417.636 972.62 413.896 971.12 410.856 968.12C407.816 965.08 406.296 961.34 406.296 956.9C406.296 952.46 407.816 948.74 410.856 945.74C413.896 942.7 417.636 941.18 422.076 941.18C426.476 941.18 430.196 942.7 433.236 945.74C436.316 948.74 437.856 952.46 437.856 956.9C437.856 961.3 436.316 965.04 433.236 968.12ZM413.676 965.36C415.956 967.64 418.756 968.78 422.076 968.78C425.396 968.78 428.196 967.64 430.476 965.36C432.756 963 433.896 960.18 433.896 956.9C433.896 953.58 432.756 950.78 430.476 948.5C428.196 946.18 425.396 945.02 422.076 945.02C418.756 945.02 415.956 946.18 413.676 948.5C411.396 950.78 410.256 953.58 410.256 956.9C410.256 960.18 411.396 963 413.676 965.36Z" fill="#F8F7F3"/>
<path d="M459.963 941.18C464.243 941.18 467.883 942.7 470.883 945.74C473.923 948.78 475.443 952.5 475.443 956.9C475.443 961.3 473.923 965.02 470.883 968.06C467.883 971.1 464.243 972.62 459.963 972.62C454.643 972.62 450.603 970.42 447.843 966.02V983.9H443.883V941.9H447.843V947.78C450.603 943.38 454.643 941.18 459.963 941.18ZM451.263 965.36C453.543 967.64 456.343 968.78 459.663 968.78C462.983 968.78 465.783 967.64 468.063 965.36C470.343 963 471.483 960.18 471.483 956.9C471.483 953.58 470.343 950.78 468.063 948.5C465.783 946.18 462.983 945.02 459.663 945.02C456.343 945.02 453.543 946.18 451.263 948.5C448.983 950.78 447.843 953.58 447.843 956.9C447.843 960.18 448.983 963 451.263 965.36Z" fill="#F8F7F3"/>
<path d="M485.387 965L503.267 941.9H506.627V971.9H502.667V948.8L484.787 971.9H481.427V941.9H485.387V965Z" fill="#F8F7F3"/>
<path d="M510.802 941.9H536.002V945.74H525.382V971.9H521.422V945.74H510.802V941.9Z" fill="#F8F7F3"/>
<path d="M552.915 941.18C557.395 941.18 560.975 942.76 563.655 945.92C566.415 949.04 567.795 952.74 567.795 957.02C567.795 957.22 567.755 957.84 567.675 958.88H541.335C541.735 961.88 543.015 964.28 545.175 966.08C547.335 967.88 550.035 968.78 553.275 968.78C557.835 968.78 561.055 967.08 562.935 963.68L566.415 965.72C565.095 967.88 563.275 969.58 560.955 970.82C558.675 972.02 556.095 972.62 553.215 972.62C548.495 972.62 544.655 971.14 541.695 968.18C538.735 965.22 537.255 961.46 537.255 956.9C537.255 952.38 538.715 948.64 541.635 945.68C544.555 942.68 548.315 941.18 552.915 941.18ZM552.915 945.02C549.795 945.02 547.175 945.94 545.055 947.78C542.975 949.62 541.735 952.04 541.335 955.04H563.715C563.275 951.84 562.055 949.38 560.055 947.66C557.975 945.9 555.595 945.02 552.915 945.02Z" fill="#F8F7F3"/>
<path d="M575.443 941.9H596.923V971.9H592.963V945.74H579.403V959.12C579.403 964.12 578.443 967.56 576.523 969.44C574.643 971.32 572.043 972.14 568.723 971.9V968.18C571.043 968.42 572.743 967.86 573.823 966.5C574.903 965.14 575.443 962.68 575.443 959.12V941.9Z" fill="#F8F7F3"/>
<path d="M608.671 953.3H616.891C619.651 953.3 622.011 954.18 623.971 955.94C625.931 957.66 626.911 959.88 626.911 962.6C626.911 965.36 625.931 967.6 623.971 969.32C622.091 971.04 619.731 971.9 616.891 971.9H604.711V941.9H608.671V953.3ZM608.671 968.06H616.891C618.611 968.06 620.051 967.56 621.211 966.56C622.371 965.52 622.951 964.2 622.951 962.6C622.951 961 622.371 959.7 621.211 958.7C620.051 957.66 618.611 957.14 616.891 957.14H608.671V968.06Z" fill="#F8F7F3"/>
<path d="M653.535 954.98V941.9H657.495V971.9H653.535V958.82H636.255V971.9H632.295V941.9H636.255V954.98H653.535Z" fill="#F8F7F3"/>
<path d="M669.229 953.3H677.449C680.209 953.3 682.569 954.18 684.529 955.94C686.489 957.66 687.469 959.88 687.469 962.6C687.469 965.36 686.489 967.6 684.529 969.32C682.649 971.04 680.289 971.9 677.449 971.9H665.269V941.9H669.229V953.3ZM691.669 971.9V941.9H695.629V971.9H691.669ZM669.229 968.06H677.449C679.169 968.06 680.609 967.56 681.769 966.56C682.929 965.52 683.509 964.2 683.509 962.6C683.509 961 682.929 959.7 681.769 958.7C680.609 957.66 679.169 957.14 677.449 957.14H669.229V968.06Z" fill="#F8F7F3"/>
<path d="M723.858 937.1H708.258V933.62H723.858V937.1ZM707.418 965L725.298 941.9H728.658V971.9H724.698V948.8L706.818 971.9H703.458V941.9H707.418V965Z" fill="#F8F7F3"/>
<path d="M768.712 972.56V983.9H764.752V972.56C759.992 972.12 756.192 970.46 753.352 967.58C750.472 964.62 749.032 961.06 749.032 956.9C749.032 952.74 750.472 949.18 753.352 946.22C756.192 943.34 759.992 941.68 764.752 941.24V929.9H768.712V941.24C773.472 941.68 777.272 943.34 780.112 946.22C782.992 949.18 784.432 952.74 784.432 956.9C784.432 961.06 782.992 964.62 780.112 967.58C777.272 970.46 773.472 972.12 768.712 972.56ZM764.752 968.66V945.14C761.192 945.5 758.332 946.76 756.172 948.92C754.052 951.08 752.992 953.74 752.992 956.9C752.992 960.06 754.052 962.72 756.172 964.88C758.332 967.04 761.192 968.3 764.752 968.66ZM768.712 945.14V968.66C772.272 968.3 775.112 967.04 777.232 964.88C779.392 962.72 780.472 960.06 780.472 956.9C780.472 953.74 779.392 951.08 777.232 948.92C775.112 946.76 772.272 945.5 768.712 945.14Z" fill="#F8F7F3"/>
<path d="M815.567 968.12C812.487 971.12 808.767 972.62 804.407 972.62C799.967 972.62 796.227 971.12 793.187 968.12C790.147 965.08 788.627 961.34 788.627 956.9C788.627 952.46 790.147 948.74 793.187 945.74C796.227 942.7 799.967 941.18 804.407 941.18C808.807 941.18 812.527 942.7 815.567 945.74C818.647 948.74 820.187 952.46 820.187 956.9C820.187 961.3 818.647 965.04 815.567 968.12ZM796.007 965.36C798.287 967.64 801.087 968.78 804.407 968.78C807.727 968.78 810.527 967.64 812.807 965.36C815.087 963 816.227 960.18 816.227 956.9C816.227 953.58 815.087 950.78 812.807 948.5C810.527 946.18 807.727 945.02 804.407 945.02C801.087 945.02 798.287 946.18 796.007 948.5C793.727 950.78 792.587 953.58 792.587 956.9C792.587 960.18 793.727 963 796.007 965.36Z" fill="#F8F7F3"/>
<path d="M847.454 954.98V941.9H851.414V971.9H847.454V958.82H830.174V971.9H826.214V941.9H830.174V954.98H847.454Z" fill="#F8F7F3"/>
<path d="M884.388 941.9V968.06H888.588V979.94H884.628V971.9H860.148V979.94H856.188V968.06H859.848C861.888 965.34 862.908 961.56 862.908 956.72V941.9H884.388ZM864.648 968.06H880.428V945.74H866.868V956.72C866.868 961.36 866.128 965.14 864.648 968.06Z" fill="#F8F7F3"/>
<path d="M540.42 578.962L487.792 625.425C463.546 651.497 436.83 642.311 426.503 634.46C396.525 615.315 333.306 572.766 320.249 555.73C307.192 538.693 315.919 522.173 321.914 516.042L357.888 473.344L331.573 467.642C282.943 453.445 307.592 394.075 352.892 407.304C299.93 389.558 329.908 331.267 371.546 342.126C319.583 328.574 339.568 260.455 386.535 274.689C329.243 257.326 358.889 198.217 406.187 212.415L430.569 220.159C434.57 215.383 440.246 211.032 447.822 207.575L533.758 170.146C587.385 151.431 604.039 205.162 564.735 228.548L630.352 189.506C679.649 164.66 712.291 228.472 661.662 249.844C717.953 226.082 741.602 300.047 694.304 318.894C741.269 300.179 773.578 366.353 726.28 387.299C772.912 366.648 802.89 421.351 762.253 446.669C752.842 452.533 741.681 459.444 729.609 466.863L762.253 510.234C795.297 546.114 769.803 566.485 752.925 572.186C736.826 580.037 696.967 599.031 666.323 612.196C635.68 625.361 614.029 608.001 607.034 597.676L575.391 553.557C563.148 560.088 548.065 572.2 540.42 578.962Z" fill="#F8F7F3"/>
<path d="M726.28 387.299C772.912 366.648 802.89 421.351 762.253 446.669C752.842 452.533 741.681 459.444 729.609 466.863M726.28 387.299L684.311 407.304M726.28 387.299C773.578 366.353 741.269 300.179 694.304 318.894M694.304 318.894L636.348 345.352M694.304 318.894C741.602 300.047 717.953 226.082 661.662 249.844M661.662 249.844L596.045 277.916M661.662 249.844C712.291 228.472 679.649 164.66 630.352 189.506L564.735 228.548M564.735 228.548C604.039 205.162 587.385 151.431 533.758 170.146L447.822 207.575C440.246 211.032 434.57 215.383 430.569 220.159M564.735 228.548L511.441 249.844M430.569 220.159C410.296 244.357 433.031 279.455 469.473 264.364L511.441 249.844M430.569 220.159L406.187 212.415C358.889 198.217 329.243 257.326 386.535 274.689M386.535 274.689L488.792 303.729M386.535 274.689C339.568 260.455 319.583 328.574 371.546 342.126M488.792 303.729C536.756 315.99 554.409 264.364 511.441 249.844M488.792 303.729C537.707 316.233 530.11 376.01 478.816 365.485M371.546 342.126C329.908 331.267 299.93 389.558 352.892 407.304M371.546 342.126L475.467 364.712M475.467 364.712C476.603 365.003 477.719 365.26 478.816 365.485M475.467 364.712C476.616 364.948 477.733 365.206 478.816 365.485M478.816 365.485C531.066 378.931 506.134 440.974 459.144 430.859L424.837 423.253M352.892 407.304C307.592 394.075 282.943 453.445 331.573 467.642L357.888 473.344M352.892 407.304L424.837 423.253M424.837 423.253C475.467 434.731 447.155 493.133 407.517 484.098L357.888 473.344M357.888 473.344L321.914 516.042C315.919 522.173 307.192 538.693 320.249 555.73C333.306 572.766 396.525 615.315 426.503 634.46C436.83 642.311 463.546 651.497 487.792 625.425L540.42 578.962C548.065 572.2 563.148 560.088 575.391 553.557M575.391 553.557C579.507 551.361 583.302 549.796 586.385 549.277C596.487 547.575 673.04 501.633 729.609 466.863M575.391 553.557L607.034 597.676C614.029 608.001 635.68 625.361 666.323 612.196C696.967 599.031 736.826 580.037 752.925 572.186C769.803 566.485 795.297 546.114 762.253 510.234L729.609 466.863" stroke="#285347" stroke-width="14" stroke-linecap="round" stroke-linejoin="round"/>
<path d="M900 583.865L745.356 95H334.644L180 583.865L540 765L900 583.865Z" stroke="#F8F7F3" stroke-width="10" stroke-linejoin="round"/>
</svg>
