<svg width="1080" height="1080" viewBox="0 0 1080 1080" fill="none" xmlns="http://www.w3.org/2000/svg">
<rect width="1080" height="1080" fill="#AE2E42"/>
<path d="M142.212 877.344C143.43 875.084 144.52 872.469 145.482 869.498C146.507 866.528 147.341 862.879 147.982 858.552C148.687 854.161 149.232 848.963 149.616 842.957C150.001 836.887 150.193 829.622 150.193 821.162H218.468V877.344H230.007V905.338H211.16V893.23H153.848V905.338H135V877.344H142.212ZM198.659 877.344V837.048H169.041C169.041 846.864 168.336 855.194 166.925 862.039C165.515 868.82 163.977 873.922 162.31 877.344H198.659Z" fill="#F8F7F3"/>
<path d="M302.928 821.162V836.855H256.963V848.575H301.485V864.849H256.963V877.344H303.505V893.23H237.442V821.162H302.928Z" fill="#F8F7F3"/>
<path d="M372.026 837.048H341.254C341.254 846.864 340.998 855.42 340.485 862.718C339.972 870.015 339.074 875.633 337.792 879.572C337.215 881.316 336.478 882.995 335.581 884.609C334.683 886.223 333.465 887.676 331.926 888.968C330.388 890.26 328.433 891.293 326.061 892.068C323.689 892.843 320.708 893.23 317.118 893.23H310.002V876.279H310.675C313.624 876.279 315.771 875.697 317.118 874.535C318.528 873.373 319.522 872.049 320.099 870.564C320.419 869.724 320.708 868.788 320.964 867.755C321.221 866.721 321.413 865.43 321.541 863.88C321.733 862.265 321.894 860.328 322.022 858.068C322.15 855.743 322.246 852.902 322.31 849.544C322.374 846.121 322.406 842.118 322.406 837.533C322.471 832.883 322.503 827.426 322.503 821.162H391.835V893.23H372.026V837.048Z" fill="#F8F7F3"/>
<path d="M449.679 820C458.013 820 464.937 821.13 470.45 823.39C476.027 825.586 480.451 828.427 483.72 831.914C486.99 835.337 489.298 839.147 490.644 843.344C491.99 847.542 492.663 851.61 492.663 855.55V858.455C492.663 862.33 491.99 866.398 490.644 870.66C489.298 874.858 486.99 878.733 483.72 882.284C480.451 885.771 476.027 888.677 470.45 891.002C464.937 893.262 458.013 894.392 449.679 894.392H445.448C439.871 894.392 434.935 893.876 430.639 892.843C426.344 891.745 422.594 890.292 419.389 888.484C416.247 886.675 413.587 884.609 411.407 882.284C409.228 879.895 407.465 877.376 406.118 874.729C404.836 872.017 403.907 869.272 403.33 866.495C402.753 863.718 402.464 861.039 402.464 858.455V855.55C402.464 852.902 402.753 850.222 403.33 847.51C403.907 844.733 404.836 842.021 406.118 839.373C407.465 836.725 409.228 834.239 411.407 831.914C413.587 829.525 416.247 827.459 419.389 825.715C422.594 823.971 426.344 822.583 430.639 821.55C434.935 820.517 439.871 820 445.448 820H449.679ZM472.085 856.324C472.085 854.129 471.732 851.869 471.027 849.544C470.386 847.155 469.168 844.991 467.373 843.054C465.578 841.117 463.078 839.534 459.872 838.308C456.731 837.081 452.628 836.467 447.564 836.467C442.563 836.467 438.461 837.081 435.255 838.308C432.114 839.534 429.614 841.117 427.755 843.054C425.96 844.991 424.71 847.155 424.004 849.544C423.363 851.869 423.043 854.129 423.043 856.324V857.681C423.043 859.876 423.395 862.169 424.1 864.558C424.806 866.883 426.056 869.046 427.851 871.048C429.71 872.985 432.21 874.6 435.351 875.891C438.557 877.183 442.628 877.828 447.564 877.828C452.564 877.828 456.667 877.183 459.872 875.891C463.078 874.6 465.578 872.985 467.373 871.048C469.168 869.046 470.386 866.883 471.027 864.558C471.732 862.169 472.085 859.876 472.085 857.681V856.324Z" fill="#F8F7F3"/>
<path d="M579.759 866.495C576.682 866.883 573.701 867.206 570.816 867.464C567.931 867.658 565.046 867.755 562.161 867.755C556.392 867.755 551.135 867.432 546.391 866.786C541.647 866.14 537.576 864.849 534.178 862.911C530.845 860.974 528.249 858.262 526.389 854.775C524.594 851.223 523.697 846.573 523.697 840.826V821.162H543.506V837.533C543.506 840.439 543.891 842.828 544.66 844.701C545.429 846.573 546.647 848.059 548.314 849.156C550.045 850.19 552.257 850.932 554.949 851.384C557.706 851.772 561.007 851.965 564.854 851.965C566.264 851.965 567.707 851.933 569.181 851.869C570.656 851.804 572.066 851.739 573.412 851.675C574.758 851.546 575.976 851.417 577.066 851.287C578.156 851.158 579.054 851.029 579.759 850.9V821.162H599.568V893.23H579.759V866.495Z" fill="#F8F7F3"/>
<path d="M678.857 821.162V836.855H632.892V848.575H677.415V864.849H632.892V877.344H679.434V893.23H613.372V821.162H678.857Z" fill="#F8F7F3"/>
<path d="M729.588 894.296C724.139 894.296 719.331 893.747 715.164 892.649C710.997 891.551 707.375 890.098 704.298 888.29C701.285 886.417 698.72 884.286 696.605 881.897C694.553 879.507 692.887 876.989 691.605 874.341C690.387 871.629 689.521 868.917 689.008 866.205C688.495 863.492 688.239 860.909 688.239 858.455V855.55C688.239 853.031 688.495 850.416 689.008 847.703C689.521 844.991 690.387 842.344 691.605 839.76C692.887 837.113 694.553 834.594 696.605 832.205C698.72 829.816 701.285 827.749 704.298 826.006C707.375 824.197 710.997 822.777 715.164 821.744C719.331 820.646 724.139 820.097 729.588 820.097H734.012C741.512 820.097 747.795 820.936 752.859 822.615C757.988 824.294 762.123 826.49 765.264 829.202C768.405 831.914 770.649 834.982 771.995 838.404C773.341 841.762 774.015 845.153 774.015 848.575V848.769H753.628C753.564 848.252 753.276 847.348 752.763 846.057C752.25 844.701 751.224 843.312 749.686 841.892C748.147 840.471 745.968 839.244 743.147 838.211C740.326 837.113 736.544 836.564 731.8 836.564C727.441 836.564 723.786 837.145 720.838 838.308C717.889 839.405 715.517 840.891 713.722 842.763C711.927 844.571 710.644 846.67 709.875 849.06C709.17 851.384 708.817 853.741 708.817 856.131V857.487C708.817 859.747 709.202 862.072 709.971 864.461C710.741 866.786 712.023 868.949 713.818 870.951C715.613 872.953 717.985 874.6 720.934 875.891C723.883 877.118 727.537 877.732 731.896 877.732C736.64 877.732 740.422 877.183 743.243 876.085C746.128 874.987 748.307 873.728 749.782 872.307C751.321 870.822 752.314 869.401 752.763 868.045C753.276 866.624 753.564 865.623 753.628 865.042H774.015V865.333C774.015 868.626 773.341 871.984 771.995 875.407C770.713 878.829 768.501 881.961 765.36 884.803C762.283 887.58 758.18 889.872 753.051 891.68C747.923 893.424 741.576 894.296 734.012 894.296H729.588Z" fill="#F8F7F3"/>
<path d="M806.716 837.629H779.022V821.162H854.123V837.629H826.429V893.23H806.716V837.629Z" fill="#F8F7F3"/>
<path d="M925.191 844.797L883.361 893.23H863.552V821.162H883.361V869.595L925.191 821.162H945V893.23H925.191V844.797Z" fill="#F8F7F3"/>
<path d="M207.12 973.644C202.84 973.644 199.24 972.215 196.32 969.356C193.44 966.456 192 962.711 192 958.121C192 952.966 192.76 949.02 194.28 946.282C195.8 943.503 198.88 940.987 203.52 938.732C205 938.047 206.16 937.523 207 937.161C208.4 936.597 209.5 936.114 210.3 935.711C213.78 934.101 215.54 932.107 215.58 929.732L218.7 931.544C218.5 932.55 218.18 933.456 217.74 934.262C217.22 935.148 216.7 935.852 216.18 936.376C215.7 936.899 214.94 937.463 213.9 938.067C213.22 938.47 212.4 938.913 211.44 939.396L208.44 940.664L205.62 941.872C202.86 943.081 200.8 944.349 199.44 945.678C198.12 946.966 197.18 948.658 196.62 950.752C197.9 949.02 199.58 947.711 201.66 946.825C203.74 945.899 205.84 945.436 207.96 945.436C211.96 945.436 215.26 946.765 217.86 949.423C220.5 952.04 221.82 955.403 221.82 959.51C221.82 963.577 220.42 966.96 217.62 969.658C214.86 972.315 211.36 973.644 207.12 973.644ZM199.32 966.698C201.4 968.671 204 969.658 207.12 969.658C210.24 969.658 212.8 968.711 214.8 966.819C216.84 964.886 217.86 962.45 217.86 959.51C217.86 956.53 216.9 954.094 214.98 952.201C213.1 950.268 210.58 949.302 207.42 949.302C204.58 949.302 202 950.208 199.68 952.02C197.36 953.752 196.2 956.128 196.2 959.148C196.2 962.208 197.24 964.725 199.32 966.698Z" fill="#F8F7F3"/>
<path d="M229.191 942.718H250.671V972.919H246.711V946.584H233.151V960.054C233.151 965.087 232.191 968.55 230.271 970.443C228.391 972.336 225.791 973.161 222.471 972.919V969.174C224.791 969.416 226.491 968.852 227.571 967.483C228.651 966.114 229.191 963.638 229.191 960.054V942.718Z" fill="#F8F7F3"/>
<path d="M284.259 948.638V942.718H288.219V972.919H284.259V967C281.499 971.43 277.459 973.644 272.139 973.644C267.859 973.644 264.199 972.114 261.159 969.054C258.159 965.993 256.659 962.248 256.659 957.819C256.659 953.389 258.159 949.644 261.159 946.584C264.199 943.523 267.859 941.993 272.139 941.993C277.459 941.993 281.499 944.208 284.259 948.638ZM264.039 966.336C266.319 968.631 269.119 969.779 272.439 969.779C275.759 969.779 278.559 968.631 280.839 966.336C283.119 963.96 284.259 961.121 284.259 957.819C284.259 954.477 283.119 951.658 280.839 949.362C278.559 947.027 275.759 945.859 272.439 945.859C269.119 945.859 266.319 947.027 264.039 949.362C261.759 951.658 260.619 954.477 260.619 957.819C260.619 961.121 261.759 963.96 264.039 966.336Z" fill="#F8F7F3"/>
<path d="M296.004 942.718H315.204V946.584H299.964V972.919H296.004V942.718Z" fill="#F8F7F3"/>
<path d="M343.395 969.114C340.315 972.134 336.595 973.644 332.235 973.644C327.795 973.644 324.055 972.134 321.015 969.114C317.975 966.054 316.455 962.289 316.455 957.819C316.455 953.349 317.975 949.604 321.015 946.584C324.055 943.523 327.795 941.993 332.235 941.993C336.635 941.993 340.355 943.523 343.395 946.584C346.475 949.604 348.015 953.349 348.015 957.819C348.015 962.248 346.475 966.013 343.395 969.114ZM323.835 966.336C326.115 968.631 328.915 969.779 332.235 969.779C335.555 969.779 338.355 968.631 340.635 966.336C342.915 963.96 344.055 961.121 344.055 957.819C344.055 954.477 342.915 951.658 340.635 949.362C338.355 947.027 335.555 945.859 332.235 945.859C328.915 945.859 326.115 947.027 323.835 949.362C321.555 951.658 320.415 954.477 320.415 957.819C320.415 961.121 321.555 963.96 323.835 966.336Z" fill="#F8F7F3"/>
<path d="M349.27 942.718H374.47V946.584H363.85V972.919H359.89V946.584H349.27V942.718Z" fill="#F8F7F3"/>
<path d="M397.776 957.396C401.056 958.604 402.696 960.96 402.696 964.463C402.696 966.96 401.856 968.993 400.176 970.564C398.536 972.134 396.236 972.919 393.276 972.919H378.696V942.718H392.076C394.956 942.718 397.196 943.463 398.796 944.953C400.436 946.443 401.256 948.396 401.256 950.812C401.256 953.832 400.096 956.027 397.776 957.396ZM392.076 946.584H382.656V955.765H392.076C395.556 955.765 397.296 954.195 397.296 951.054C397.296 949.644 396.836 948.557 395.916 947.792C395.036 946.987 393.756 946.584 392.076 946.584ZM382.656 969.054H393.276C395.036 969.054 396.376 968.631 397.296 967.785C398.256 966.94 398.736 965.752 398.736 964.221C398.736 962.772 398.256 961.644 397.296 960.839C396.376 960.034 395.036 959.631 393.276 959.631H382.656V969.054Z" fill="#F8F7F3"/>
<path d="M433.236 969.114C430.156 972.134 426.436 973.644 422.076 973.644C417.636 973.644 413.896 972.134 410.856 969.114C407.816 966.054 406.296 962.289 406.296 957.819C406.296 953.349 407.816 949.604 410.856 946.584C413.896 943.523 417.636 941.993 422.076 941.993C426.476 941.993 430.196 943.523 433.236 946.584C436.316 949.604 437.856 953.349 437.856 957.819C437.856 962.248 436.316 966.013 433.236 969.114ZM413.676 966.336C415.956 968.631 418.756 969.779 422.076 969.779C425.396 969.779 428.196 968.631 430.476 966.336C432.756 963.96 433.896 961.121 433.896 957.819C433.896 954.477 432.756 951.658 430.476 949.362C428.196 947.027 425.396 945.859 422.076 945.859C418.756 945.859 415.956 947.027 413.676 949.362C411.396 951.658 410.256 954.477 410.256 957.819C410.256 961.121 411.396 963.96 413.676 966.336Z" fill="#F8F7F3"/>
<path d="M459.963 941.993C464.243 941.993 467.883 943.523 470.883 946.584C473.923 949.644 475.443 953.389 475.443 957.819C475.443 962.248 473.923 965.993 470.883 969.054C467.883 972.114 464.243 973.644 459.963 973.644C454.643 973.644 450.603 971.43 447.843 967V985H443.883V942.718H447.843V948.638C450.603 944.208 454.643 941.993 459.963 941.993ZM451.263 966.336C453.543 968.631 456.343 969.779 459.663 969.779C462.983 969.779 465.783 968.631 468.063 966.336C470.343 963.96 471.483 961.121 471.483 957.819C471.483 954.477 470.343 951.658 468.063 949.362C465.783 947.027 462.983 945.859 459.663 945.859C456.343 945.859 453.543 947.027 451.263 949.362C448.983 951.658 447.843 954.477 447.843 957.819C447.843 961.121 448.983 963.96 451.263 966.336Z" fill="#F8F7F3"/>
<path d="M485.387 965.973L503.267 942.718H506.627V972.919H502.667V949.664L484.787 972.919H481.427V942.718H485.387V965.973Z" fill="#F8F7F3"/>
<path d="M510.802 942.718H536.002V946.584H525.382V972.919H521.422V946.584H510.802V942.718Z" fill="#F8F7F3"/>
<path d="M552.915 941.993C557.395 941.993 560.975 943.584 563.655 946.765C566.415 949.906 567.795 953.631 567.795 957.94C567.795 958.141 567.755 958.765 567.675 959.812H541.335C541.735 962.832 543.015 965.248 545.175 967.06C547.335 968.872 550.035 969.779 553.275 969.779C557.835 969.779 561.055 968.067 562.935 964.644L566.415 966.698C565.095 968.872 563.275 970.584 560.955 971.832C558.675 973.04 556.095 973.644 553.215 973.644C548.495 973.644 544.655 972.154 541.695 969.174C538.735 966.195 537.255 962.409 537.255 957.819C537.255 953.268 538.715 949.503 541.635 946.523C544.555 943.503 548.315 941.993 552.915 941.993ZM552.915 945.859C549.795 945.859 547.175 946.785 545.055 948.638C542.975 950.49 541.735 952.926 541.335 955.946H563.715C563.275 952.725 562.055 950.248 560.055 948.517C557.975 946.745 555.595 945.859 552.915 945.859Z" fill="#F8F7F3"/>
<path d="M575.443 942.718H596.923V972.919H592.963V946.584H579.403V960.054C579.403 965.087 578.443 968.55 576.523 970.443C574.643 972.336 572.043 973.161 568.723 972.919V969.174C571.043 969.416 572.743 968.852 573.823 967.483C574.903 966.114 575.443 963.638 575.443 960.054V942.718Z" fill="#F8F7F3"/>
<path d="M608.671 954.195H616.891C619.651 954.195 622.011 955.081 623.971 956.852C625.931 958.584 626.911 960.819 626.911 963.557C626.911 966.336 625.931 968.591 623.971 970.322C622.091 972.054 619.731 972.919 616.891 972.919H604.711V942.718H608.671V954.195ZM608.671 969.054H616.891C618.611 969.054 620.051 968.55 621.211 967.544C622.371 966.497 622.951 965.168 622.951 963.557C622.951 961.946 622.371 960.638 621.211 959.631C620.051 958.584 618.611 958.06 616.891 958.06H608.671V969.054Z" fill="#F8F7F3"/>
<path d="M653.535 955.886V942.718H657.495V972.919H653.535V959.752H636.255V972.919H632.295V942.718H636.255V955.886H653.535Z" fill="#F8F7F3"/>
<path d="M669.229 954.195H677.449C680.209 954.195 682.569 955.081 684.529 956.852C686.489 958.584 687.469 960.819 687.469 963.557C687.469 966.336 686.489 968.591 684.529 970.322C682.649 972.054 680.289 972.919 677.449 972.919H665.269V942.718H669.229V954.195ZM691.669 972.919V942.718H695.629V972.919H691.669ZM669.229 969.054H677.449C679.169 969.054 680.609 968.55 681.769 967.544C682.929 966.497 683.509 965.168 683.509 963.557C683.509 961.946 682.929 960.638 681.769 959.631C680.609 958.584 679.169 958.06 677.449 958.06H669.229V969.054Z" fill="#F8F7F3"/>
<path d="M723.858 937.886H708.258V934.383H723.858V937.886ZM707.418 965.973L725.298 942.718H728.658V972.919H724.698V949.664L706.818 972.919H703.458V942.718H707.418V965.973Z" fill="#F8F7F3"/>
<path d="M768.712 973.584V985H764.752V973.584C759.992 973.141 756.192 971.47 753.352 968.57C750.472 965.591 749.032 962.007 749.032 957.819C749.032 953.631 750.472 950.047 753.352 947.067C756.192 944.168 759.992 942.497 764.752 942.054V930.638H768.712V942.054C773.472 942.497 777.272 944.168 780.112 947.067C782.992 950.047 784.432 953.631 784.432 957.819C784.432 962.007 782.992 965.591 780.112 968.57C777.272 971.47 773.472 973.141 768.712 973.584ZM764.752 969.658V945.98C761.192 946.342 758.332 947.611 756.172 949.785C754.052 951.96 752.992 954.638 752.992 957.819C752.992 961 754.052 963.678 756.172 965.852C758.332 968.027 761.192 969.295 764.752 969.658ZM768.712 945.98V969.658C772.272 969.295 775.112 968.027 777.232 965.852C779.392 963.678 780.472 961 780.472 957.819C780.472 954.638 779.392 951.96 777.232 949.785C775.112 947.611 772.272 946.342 768.712 945.98Z" fill="#F8F7F3"/>
<path d="M815.567 969.114C812.487 972.134 808.767 973.644 804.407 973.644C799.967 973.644 796.227 972.134 793.187 969.114C790.147 966.054 788.627 962.289 788.627 957.819C788.627 953.349 790.147 949.604 793.187 946.584C796.227 943.523 799.967 941.993 804.407 941.993C808.807 941.993 812.527 943.523 815.567 946.584C818.647 949.604 820.187 953.349 820.187 957.819C820.187 962.248 818.647 966.013 815.567 969.114ZM796.007 966.336C798.287 968.631 801.087 969.779 804.407 969.779C807.727 969.779 810.527 968.631 812.807 966.336C815.087 963.96 816.227 961.121 816.227 957.819C816.227 954.477 815.087 951.658 812.807 949.362C810.527 947.027 807.727 945.859 804.407 945.859C801.087 945.859 798.287 947.027 796.007 949.362C793.727 951.658 792.587 954.477 792.587 957.819C792.587 961.121 793.727 963.96 796.007 966.336Z" fill="#F8F7F3"/>
<path d="M847.454 955.886V942.718H851.414V972.919H847.454V959.752H830.174V972.919H826.214V942.718H830.174V955.886H847.454Z" fill="#F8F7F3"/>
<path d="M884.388 942.718V969.054H888.588V981.013H884.628V972.919H860.148V981.013H856.188V969.054H859.848C861.888 966.315 862.908 962.51 862.908 957.638V942.718H884.388ZM864.648 969.054H880.428V946.584H866.868V957.638C866.868 962.309 866.128 966.114 864.648 969.054Z" fill="#F8F7F3"/>
<path d="M719.237 381.618C765.011 361.652 794.436 414.542 754.548 439.021C745.31 444.69 734.354 451.372 722.505 458.546M719.237 381.618L678.041 400.96M719.237 381.618C765.664 361.366 733.95 297.385 687.85 315.48M687.85 315.48L630.96 341.062M687.85 315.48C734.277 297.257 711.063 225.743 655.808 248.718M655.808 248.718L591.398 275.859M655.808 248.718C705.505 228.054 673.464 166.357 625.075 190.379L560.665 228.128M560.665 228.128C599.245 205.517 582.898 153.566 530.258 171.66L445.904 207.849C438.467 211.192 432.896 215.399 428.968 220.016M560.665 228.128L508.352 248.718M428.968 220.016C409.069 243.412 431.385 277.347 467.156 262.756L508.352 248.718M428.968 220.016L405.035 212.529C358.608 198.802 329.507 255.952 385.745 272.74M385.745 272.74L486.12 300.817M385.745 272.74C339.643 258.978 320.026 324.839 371.032 337.942M486.12 300.817C533.201 312.672 550.529 262.756 508.352 248.718M486.12 300.817C534.135 312.907 526.677 370.703 476.327 360.527M371.032 337.942C330.16 327.443 300.734 383.802 352.721 400.96M371.032 337.942L473.04 359.78M473.04 359.78C474.155 360.061 475.251 360.309 476.327 360.527M473.04 359.78C474.168 360.008 475.264 360.257 476.327 360.527M476.327 360.527C527.616 373.528 503.143 433.515 457.018 423.734L423.342 416.381M352.721 400.96C308.255 388.169 284.06 445.572 331.795 459.299L357.625 464.812M352.721 400.96L423.342 416.381M423.342 416.381C473.04 427.478 445.249 483.945 406.341 475.21L357.625 464.812M357.625 464.812L322.314 506.095C316.429 512.023 307.863 527.996 320.679 544.468C333.496 560.94 395.551 602.079 424.977 620.589C435.114 628.18 461.338 637.061 485.139 611.854L536.797 566.93C544.302 560.392 559.107 548.682 571.125 542.367M571.125 542.367C575.165 540.244 578.89 538.731 581.917 538.228C591.833 536.583 666.977 492.163 722.505 458.546M571.125 542.367L602.186 585.024C609.052 595.007 630.304 611.791 660.384 599.063C690.463 586.334 729.589 567.97 745.392 560.378C761.958 554.867 786.983 535.171 754.548 500.48L722.505 458.546M900 582.828L540 765L180 583.526L334.608 95H745.392L900 582.828Z" stroke="#F8F7F3" stroke-width="14" stroke-linecap="round" stroke-linejoin="round"/>
</svg>
