<svg width="1080" height="1080" viewBox="0 0 1080 1080" fill="none" xmlns="http://www.w3.org/2000/svg">
<rect width="1080" height="1080" fill="#ffffff"/>
<path d="M540.419 688.962L487.792 735.425C463.545 761.497 436.829 752.311 426.502 744.46C396.525 725.315 333.305 682.766 320.249 665.73C307.192 648.693 315.918 632.173 321.914 626.042L357.887 583.344L331.573 577.642C282.942 563.445 307.591 504.075 352.891 517.304C299.93 499.558 329.907 441.267 371.545 452.126C319.583 438.574 339.568 370.455 386.534 384.689C329.242 367.326 358.888 308.217 406.186 322.415L430.568 330.159C434.569 325.383 440.245 321.032 447.822 317.575L533.758 280.146C587.384 261.431 604.038 315.162 564.734 338.548L630.352 299.506C679.648 274.66 712.29 338.472 661.661 359.844C717.953 336.082 741.602 410.047 694.304 428.894C741.269 410.179 773.578 476.353 726.28 497.299C772.912 476.648 802.889 531.351 762.253 556.669C752.841 562.533 741.68 569.444 729.609 576.863L762.253 620.234C795.296 656.114 769.802 676.485 752.925 682.186C736.826 690.037 696.967 709.031 666.323 722.196C635.679 735.361 614.029 718.001 607.034 707.676L575.391 663.557C563.147 670.088 548.064 682.2 540.419 688.962Z" fill="#285347"/>
<path d="M726.28 497.299C772.912 476.648 802.889 531.351 762.253 556.669C752.841 562.533 741.68 569.444 729.609 576.863M726.28 497.299L684.311 517.304M726.28 497.299C773.578 476.353 741.269 410.179 694.304 428.894M694.304 428.894L636.347 455.352M694.304 428.894C741.602 410.047 717.953 336.082 661.661 359.844M661.661 359.844L596.044 387.916M661.661 359.844C712.29 338.472 679.648 274.66 630.352 299.506L564.734 338.548M564.734 338.548C604.038 315.162 587.384 261.431 533.758 280.146L447.822 317.575C440.245 321.032 434.569 325.383 430.568 330.159M564.734 338.548L511.441 359.844M430.568 330.159C410.296 354.357 433.03 389.455 469.472 374.364L511.441 359.844M430.568 330.159L406.186 322.415C358.888 308.217 329.242 367.326 386.534 384.689M386.534 384.689L488.791 413.729M386.534 384.689C339.568 370.455 319.583 438.574 371.545 452.126M488.791 413.729C536.755 425.99 554.409 374.364 511.441 359.844M488.791 413.729C537.707 426.233 530.109 486.01 478.815 475.485M371.545 452.126C329.907 441.267 299.93 499.558 352.891 517.304M371.545 452.126L475.466 474.712M475.466 474.712C476.602 475.003 477.719 475.26 478.815 475.485M475.466 474.712C476.616 474.948 477.732 475.206 478.815 475.485M478.815 475.485C531.065 488.931 506.134 550.974 459.144 540.859L424.836 533.253M352.891 517.304C307.591 504.075 282.942 563.445 331.573 577.642L357.887 583.344M352.891 517.304L424.836 533.253M424.836 533.253C475.466 544.731 447.154 603.133 407.517 594.098L357.887 583.344M357.887 583.344L321.914 626.042C315.918 632.173 307.192 648.693 320.249 665.73C333.305 682.766 396.525 725.315 426.502 744.46C436.829 752.311 463.545 761.497 487.792 735.425L540.419 688.962C548.064 682.2 563.147 670.088 575.391 663.557M575.391 663.557C579.506 661.361 583.301 659.796 586.385 659.277C596.487 657.575 673.04 611.633 729.609 576.863M575.391 663.557L607.034 707.676C614.029 718.001 635.679 735.361 666.323 722.196C696.967 709.031 736.826 690.037 752.925 682.186C769.802 676.485 795.296 656.114 762.253 620.234L729.609 576.863" stroke="#F8F7F3" stroke-width="14" stroke-linecap="round" stroke-linejoin="round"/>
<path d="M900 693.865L745.356 205H334.644L180 693.865L540 875L900 693.865Z" stroke="#285347" stroke-width="10" stroke-linejoin="round"/>
</svg>
