<svg width="1080" height="1080" viewBox="0 0 1080 1080" fill="none" xmlns="http://www.w3.org/2000/svg">
<rect width="1080" height="1080" fill="#F8F7F3"/>
<path d="M719.237 491.618C765.011 471.652 794.436 524.542 754.548 549.021C745.31 554.69 734.354 561.372 722.505 568.546M719.237 491.618L678.041 510.96M719.237 491.618C765.664 471.366 733.95 407.385 687.85 425.48M687.85 425.48L630.96 451.062M687.85 425.48C734.277 407.257 711.063 335.743 655.808 358.718M655.808 358.718L591.398 385.859M655.808 358.718C705.505 338.054 673.464 276.357 625.075 300.379L560.665 338.128M560.665 338.128C599.245 315.517 582.898 263.566 530.258 281.66L445.904 317.849C438.467 321.192 432.896 325.399 428.968 330.016M560.665 338.128L508.352 358.718M428.968 330.016C409.069 353.412 431.385 387.347 467.156 372.756L508.352 358.718M428.968 330.016L405.035 322.529C358.608 308.802 329.507 365.952 385.745 382.74M385.745 382.74L486.12 410.817M385.745 382.74C339.643 368.978 320.026 434.839 371.032 447.942M486.12 410.817C533.201 422.672 550.529 372.756 508.352 358.718M486.12 410.817C534.135 422.907 526.677 480.703 476.327 470.527M371.032 447.942C330.16 437.443 300.734 493.802 352.721 510.96M371.032 447.942L473.04 469.78M473.04 469.78C474.155 470.061 475.251 470.309 476.327 470.527M473.04 469.78C474.168 470.008 475.264 470.257 476.327 470.527M476.327 470.527C527.616 483.528 503.143 543.515 457.018 533.734L423.342 526.381M352.721 510.96C308.255 498.169 284.06 555.572 331.795 569.299L357.625 574.812M352.721 510.96L423.342 526.381M423.342 526.381C473.04 537.478 445.249 593.945 406.341 585.21L357.625 574.812M357.625 574.812L322.314 616.095C316.429 622.023 307.863 637.996 320.679 654.468C333.496 670.94 395.551 712.079 424.977 730.589C435.114 738.18 461.338 747.061 485.139 721.854L536.797 676.93C544.302 670.392 559.107 658.682 571.125 652.367M571.125 652.367C575.165 650.244 578.89 648.731 581.917 648.228C591.833 646.583 666.977 602.163 722.505 568.546M571.125 652.367L602.186 695.024C609.052 705.007 630.304 721.791 660.384 709.063C690.463 696.334 729.589 677.97 745.392 670.378C761.958 664.867 786.983 645.171 754.548 610.48L722.505 568.546M900 692.828L540 875L180 693.526L334.608 205H745.392L900 692.828Z" stroke="#285347" stroke-width="14" stroke-linecap="round" stroke-linejoin="round"/>
</svg>
