<svg xmlns="http://www.w3.org/2000/svg" width="1081" height="402" viewBox="0 0 1081 402" fill="none"><script xmlns=""/>
<g opacity="0.15">
<path d="M-204.908 220.015C-204.908 220.015 -167.126 220.511 -66.6135 217.535C43.6616 214.3 43.9845 158.068 106.49 149.576C174.833 140.29 150.774 292.959 219.836 310.791C294.791 330.137 278.484 -17.2693 346.589 1.75406C372.147 8.88722 411.629 156.159 433 202.395C447.747 234.301 469.777 252.084 482.495 215.059C495.816 176.268 435.432 186.616 438.412 236.275C443.22 316.56 480.654 405.69 509.905 400.08C585.469 385.59 561.703 152.503 628.127 158.505C686.299 163.763 684.8 277.06 856.647 287.973C867.385 288.653 1030.13 290.012 1038.85 288.469" stroke="#285347" stroke-width="2" stroke-miterlimit="10"/>
<path d="M-239 218.722C-239 218.722 -198.932 219.172 -92.3396 216.472C24.6061 213.537 24.9486 162.515 91.2347 154.81C163.712 146.384 138.198 284.907 211.438 301.088C290.927 318.641 273.633 3.42339 345.858 20.6842C372.962 27.1564 414.832 160.782 437.496 202.735C453.136 231.685 476.498 247.82 489.985 214.226C504.112 179.029 440.075 188.418 443.235 233.476C448.334 306.322 488.033 387.194 519.053 382.103C599.189 368.956 573.985 157.465 644.426 162.911C706.117 167.682 704.528 270.482 886.771 280.384C898.158 281 1070.75 282.234 1080 280.834" stroke="#285347" stroke-width="2" stroke-miterlimit="10"/>
</g>
<script xmlns=""/></svg>