<svg xmlns="http://www.w3.org/2000/svg" width="388" height="2712" viewBox="0 0 388 2712" fill="none"><script xmlns=""/>
<path d="M142.218 0.155069C142.218 0.155069 143.7 82.4952 151.867 301.455C160.797 541.683 216.114 541.196 227.724 677.219C240.419 825.946 89.0271 776.754 75.0903 927.622C59.9729 1091.36 400.77 1048.47 385.613 1197.28C379.931 1253.12 237.159 1342.28 192.803 1389.82C162.195 1422.64 145.855 1471.02 182.929 1497.94C221.771 1526.15 208.447 1394.79 159.767 1402.33C81.0629 1414.51 -4.63767 1497.97 2.40459 1561.59C20.5934 1725.94 248.578 1669.22 246.138 1814.09C244 1940.96 132.503 1940.09 130.73 2314.79C130.622 2338.2 137.769 2692.86 139.742 2711.84" stroke="#285347" stroke-width="2" stroke-miterlimit="10" opacity="0.15"/>
<script xmlns=""/></svg>